<svg width="38" height="40" viewBox="0 0 38 40" fill="none" xmlns="http://www.w3.org/2000/svg">
<path d="M6.90752 20.5048H5.3194C5.02791 20.6467 4.70731 20.7206 4.38232 20.7208H5.97047C6.29544 20.7206 6.61603 20.6467 6.90752 20.5048Z" fill="url(#paint0_linear_33_2121)"/>
<path d="M18.5732 31.5286C19.1209 31.2397 19.7319 31.0877 20.3527 31.0859H18.7646C18.1437 31.0877 17.5328 31.2397 16.9851 31.5286C16.2961 31.8921 15.7229 32.4378 15.3295 33.1045H16.9176C17.311 32.4378 17.8842 31.8922 18.5732 31.5286Z" fill="url(#paint1_linear_33_2121)"/>
<path d="M20.3552 22.4481H18.7671C17.8129 22.4481 17.0361 23.2873 17.0361 24.3193C17.038 25.3505 17.8148 26.1914 18.7682 26.1925H20.3563C19.4028 26.1914 18.6262 25.3506 18.6242 24.3193C18.6242 23.2873 19.401 22.4481 20.3552 22.4481Z" fill="url(#paint2_linear_33_2121)"/>
<path d="M20.3552 7.72406H18.7671L9.84675 16.2993V33.1045H12.0045H11.4348V16.2993L20.3552 7.72406Z" fill="url(#paint3_linear_33_2121)"/>
<path d="M20.3555 2H18.7674C19.3311 2.00312 19.871 2.22529 20.2703 2.6185L34.6502 16.4427C35.1018 16.8768 35.3704 17.4759 35.4069 18.1284C35.4463 18.7675 35.244 19.3983 34.8392 19.8984C34.5705 20.231 34.2105 20.4801 33.8022 20.6159V20.5048H32.2141V35.5523C32.2141 36.9023 31.199 37.9999 29.9508 37.9999H31.5389C32.7871 37.9999 33.8022 36.9023 33.8022 35.5523V20.7204H34.7426C34.7846 20.7204 34.8266 20.7193 34.8687 20.7168C35.4721 20.6773 36.0259 20.3865 36.4274 19.8984C36.8322 19.3984 37.0346 18.7676 36.9951 18.1285C36.9584 17.4759 36.6898 16.8769 36.2382 16.4428L21.8584 2.61843C21.4591 2.22524 20.9192 2.0031 20.3555 2Z" fill="url(#paint4_linear_33_2121)"/>
<path d="M27.1183 33.1045H28.7064C28.195 31.1013 27.0701 29.3239 25.5321 28.0817C26.2381 26.951 26.6124 25.6488 26.6131 24.3202C26.6131 20.5882 23.8063 17.5525 20.3552 17.5525H18.7671C22.2182 17.5525 25.025 20.5882 25.025 24.3202C25.0243 25.6488 24.65 26.951 23.944 28.0817C25.4819 29.3239 26.6069 31.1012 27.1183 33.1045Z" fill="url(#paint5_linear_33_2121)"/>
<path d="M35.4072 18.1285C35.4467 18.7676 35.2443 19.3984 34.8395 19.8984C34.438 20.3866 33.8842 20.6773 33.2808 20.7168C33.2387 20.7195 33.1967 20.7206 33.1546 20.7206C32.8286 20.7208 32.5069 20.647 32.2143 20.5048V35.5524C32.2143 36.9024 31.1992 38 29.951 38H7.58268C6.33448 38 5.31952 36.9023 5.31952 35.5524V20.5048C5.02803 20.6468 4.70743 20.7207 4.38245 20.7208C4.33979 20.7208 4.29694 20.7195 4.25389 20.7168C3.65051 20.6773 3.09663 20.3865 2.69542 19.8984C2.29025 19.3986 2.08779 18.7677 2.12745 18.1285C2.16418 17.4759 2.43258 16.8769 2.88433 16.4428L17.2642 2.6185C17.4611 2.42251 17.6952 2.26696 17.9532 2.16081C18.2112 2.05466 18.4879 2 18.7673 2C19.0467 2 19.3234 2.05466 19.5814 2.16081C19.8394 2.26696 20.0735 2.42251 20.2703 2.6185L34.6503 16.4427C35.1019 16.877 35.3705 17.4758 35.4072 18.1285ZM27.688 33.1046V16.2994L18.7672 7.72395L9.8468 16.2994V33.1046H10.4163C10.9276 31.1014 12.0529 29.3239 13.5906 28.0817C12.8852 26.9519 12.511 25.6509 12.5098 24.3234C12.5098 20.5882 15.3165 17.5525 18.7671 17.5525C22.2177 17.5525 25.025 20.5882 25.025 24.3203C25.0242 25.6488 24.65 26.951 23.944 28.0817C25.4819 29.3239 26.607 31.1011 27.1183 33.1046H27.688ZM15.3295 33.1046H22.2051C21.7171 32.2881 20.9898 31.6646 20.1168 31.3353C19.6116 31.1423 19.0701 31.0596 18.5295 31.093C17.9889 31.1264 17.4621 31.275 16.9851 31.5286C16.2961 31.8922 15.7229 32.4378 15.3295 33.1046ZM17.0361 24.3194C17.0379 25.3505 17.8148 26.1915 18.7681 26.1926C19.7218 26.1926 20.4981 25.3525 20.4981 24.3203C20.4981 23.288 19.7216 22.4482 18.7669 22.4482C17.8123 22.4482 17.0361 23.2873 17.0361 24.3194Z" fill="#1869FF"/>
<g style="mix-blend-mode:multiply" opacity="0.4" filter="url(#filter0_f_33_2121)">
<path d="M34.1496 17.3399C34.383 17.568 34.5207 17.8748 34.5349 18.1988C34.5552 18.5248 34.452 18.8465 34.2455 19.1014C34.1425 19.2304 34.0116 19.335 33.8624 19.4075C33.7131 19.48 33.5493 19.5185 33.383 19.5203C33.0956 19.5184 32.8205 19.4051 32.6168 19.2048L32.0801 18.6891C32.0016 18.6125 31.8959 18.5692 31.7855 18.5683C31.7224 18.5683 31.6602 18.5828 31.6037 18.6105C31.5231 18.6523 31.456 18.7153 31.4097 18.7926C31.3634 18.87 31.3398 18.9585 31.3415 19.0483V35.5525C31.3412 36.2405 30.824 36.7998 30.1877 36.7998H7.81849C7.18257 36.7996 6.66513 36.2397 6.6655 35.5515V19.0483C6.66726 18.9585 6.64368 18.87 6.59738 18.7926C6.55109 18.7153 6.48392 18.6523 6.4034 18.6105C6.34689 18.5828 6.28464 18.5683 6.22154 18.5683C6.11111 18.5692 6.00537 18.6125 5.92674 18.6891L5.39025 19.2048C5.18651 19.4049 4.91145 19.5179 4.62422 19.5197C4.4578 19.518 4.29388 19.4794 4.14451 19.4069C3.99514 19.3344 3.86412 19.2297 3.76104 19.1006C3.55482 18.8458 3.45171 18.5243 3.47168 18.1986C3.48635 17.8744 3.62421 17.5676 3.85775 17.3394L18.2372 3.51525C18.3375 3.41541 18.4569 3.33617 18.5884 3.2821C18.7199 3.22803 18.8609 3.2002 19.0033 3.2002C19.1458 3.2002 19.2868 3.22803 19.4183 3.2821C19.5498 3.33617 19.6692 3.41541 19.7695 3.51525L34.1496 17.3399ZM29.0336 33.8242V15.9763C29.0342 15.9098 29.0214 15.8438 28.9958 15.7822C28.9703 15.7206 28.9325 15.6647 28.8848 15.6177L19.2984 6.4015C19.2597 6.3631 19.2137 6.33262 19.1631 6.31182C19.1124 6.29102 19.0582 6.28032 19.0033 6.28032C18.9485 6.28032 18.8942 6.29102 18.8436 6.31182C18.7929 6.33262 18.747 6.3631 18.7083 6.4015L9.12223 15.6177C9.0745 15.6646 9.03673 15.7206 9.01117 15.7822C8.98562 15.8437 8.97277 15.9097 8.97339 15.9763V33.8242C8.97339 34.0893 9.17203 34.3039 9.41703 34.3039H11.1764C11.3866 34.3039 11.5677 34.1445 11.6107 33.9217C12.0305 31.7462 13.2726 29.8256 15.0191 28.6538C15.0752 28.6149 15.1224 28.5648 15.1576 28.5067C15.1929 28.4487 15.2154 28.384 15.2238 28.3168C15.2336 28.2486 15.2293 28.1792 15.2113 28.1126C15.1932 28.0461 15.1617 27.9839 15.1187 27.9297C14.309 26.9296 13.8602 25.6473 13.8551 24.3202C13.8551 21.25 16.1645 18.7521 19.0033 18.7521C21.8422 18.7521 24.1514 21.2501 24.1514 24.3182C24.1465 25.6473 23.6979 26.9296 22.8879 27.9297C22.845 27.984 22.8136 28.0462 22.7955 28.1127C22.7775 28.1792 22.7732 28.2486 22.7829 28.3168C22.7913 28.384 22.8139 28.4487 22.8492 28.5068C22.8845 28.5648 22.9317 28.6149 22.9878 28.6538C24.7343 29.8256 25.9764 31.7462 26.3959 33.9217C26.4388 34.1445 26.6203 34.3039 26.8305 34.3039H28.5896C28.835 34.3039 29.0336 34.0893 29.0336 33.8242L29.0336 33.8242ZM23.8641 34.102C23.9053 34.0379 23.9319 33.9656 23.9418 33.8903C23.9517 33.8149 23.9447 33.7383 23.9214 33.6659C23.395 32.0342 22.2278 30.7715 20.7187 30.2019C20.1712 29.9941 19.5898 29.8871 19.0033 29.8865C16.7908 29.8865 14.8143 31.4052 14.0855 33.6659C14.0622 33.7383 14.0552 33.8149 14.0651 33.8903C14.075 33.9656 14.1014 34.0379 14.1427 34.102C14.1812 34.1629 14.2345 34.2132 14.2977 34.2485C14.361 34.2838 14.4321 34.3028 14.5048 34.3039H23.5021C23.5747 34.3029 23.6459 34.2838 23.7091 34.2485C23.7723 34.2133 23.8256 34.1629 23.864 34.102H23.8641ZM16.163 24.3206C16.1645 26.0124 17.4387 27.3902 19.003 27.3918C20.5698 27.3918 21.8438 26.0137 21.8438 24.3202C21.8438 22.626 20.5698 21.2481 19.0033 21.2481C17.4369 21.2481 16.163 22.626 16.163 24.3206Z" fill="#0440AD"/>
</g>
<path d="M4.30184 19.2048L4.83836 18.6892C4.91697 18.6126 5.02274 18.5692 5.13317 18.5684H4.75231C4.64188 18.5692 4.53613 18.6126 4.45752 18.6892L3.92104 19.2048C3.71731 19.4049 3.44226 19.518 3.15503 19.5197H3.53598C3.82316 19.5179 4.09816 19.4049 4.30184 19.2048Z" fill="url(#paint6_linear_33_2121)"/>
<path d="M13.0544 34.1021C13.0132 34.038 12.9867 33.9657 12.9768 33.8903C12.9669 33.815 12.9739 33.7384 12.9972 33.666C13.726 31.4051 15.7026 29.8865 17.9151 29.8865H17.5341C15.3216 29.8865 13.3451 31.4053 12.6163 33.666C12.5929 33.7384 12.586 33.815 12.5958 33.8903C12.6057 33.9657 12.6322 34.038 12.6734 34.1021C12.7119 34.1629 12.7652 34.2133 12.8285 34.2486C12.8917 34.2838 12.9629 34.3029 13.0355 34.304H13.4165C13.3439 34.3029 13.2727 34.2838 13.2094 34.2486C13.1462 34.2133 13.0929 34.1629 13.0544 34.1021Z" fill="url(#paint7_linear_33_2121)"/>
<path d="M17.9151 21.2482H17.5341C15.9678 21.2482 14.6938 22.6261 14.6938 24.3206C14.6952 26.0125 15.9694 27.3903 17.5337 27.3919H17.9147C16.3504 27.3903 15.0762 26.0125 15.0748 24.3206C15.0748 22.6261 16.3488 21.2482 17.9151 21.2482Z" fill="url(#paint8_linear_33_2121)"/>
<path d="M17.9151 6.28035H17.5341C17.4234 6.28088 17.3174 6.32441 17.239 6.40153L7.65298 15.6177C7.60523 15.6647 7.56745 15.7206 7.54189 15.7822C7.51632 15.8438 7.50348 15.9098 7.5041 15.9763V33.8242C7.5041 34.0894 7.70274 34.304 7.94774 34.304H8.32871C8.08372 34.304 7.88507 34.0894 7.88507 33.8242V15.9764C7.88446 15.9098 7.8973 15.8438 7.92286 15.7822C7.94842 15.7206 7.98617 15.6647 8.0339 15.6177L17.6199 6.40153C17.6984 6.32441 17.8044 6.28088 17.9151 6.28035Z" fill="url(#paint9_linear_33_2121)"/>
<path d="M17.9151 3.2002H17.5341C17.8214 3.20206 18.0965 3.3152 18.3003 3.51531L32.6802 17.34C32.9137 17.5681 33.0513 17.8748 33.0655 18.1989C33.0858 18.5248 32.9827 18.8465 32.7762 19.1015C32.6732 19.2305 32.5423 19.3351 32.393 19.4076C32.2438 19.48 32.08 19.5186 31.9137 19.5204H32.2946C32.4609 19.5186 32.6247 19.48 32.774 19.4076C32.9232 19.3351 33.0541 19.2305 33.1571 19.1015C33.3636 18.8465 33.4668 18.5248 33.4465 18.1989C33.4323 17.8748 33.2946 17.5681 33.0612 17.34L18.6812 3.51531C18.4775 3.3152 18.2024 3.20206 17.9151 3.2002Z" fill="url(#paint10_linear_33_2121)"/>
<path d="M24.9266 33.9218C24.9695 34.1446 25.151 34.304 25.3612 34.304H25.7422C25.532 34.304 25.3505 34.1446 25.3076 33.9218C24.8881 31.7463 23.646 29.8257 21.8995 28.6538C21.8434 28.615 21.7961 28.5649 21.7608 28.5069C21.7255 28.4488 21.7029 28.3841 21.6945 28.3169C21.6849 28.2487 21.6892 28.1793 21.7072 28.1128C21.7253 28.0463 21.7567 27.9841 21.7996 27.9298C22.6096 26.9296 23.0583 25.6474 23.0631 24.3183C23.0631 21.2502 20.7538 18.7522 17.9151 18.7522H17.5341C20.3728 18.7522 22.6822 21.2502 22.6822 24.3183C22.6773 25.6474 22.2286 26.9296 21.4186 27.9298C21.3757 27.9841 21.3443 28.0463 21.3263 28.1128C21.3083 28.1793 21.304 28.2487 21.3136 28.3169C21.322 28.3841 21.3446 28.4488 21.3799 28.5068C21.4152 28.5649 21.4624 28.615 21.5186 28.6538C23.265 29.8257 24.5072 31.7463 24.9266 33.9218Z" fill="url(#paint11_linear_33_2121)"/>
<path d="M29.8722 19.0484V35.5525C29.8718 36.2404 29.3546 36.7998 28.7183 36.7998H29.0993C29.7356 36.7998 30.2528 36.2404 30.2532 35.5525V19.0484C30.2514 18.9585 30.275 18.87 30.3213 18.7927C30.3676 18.7153 30.4348 18.6523 30.5153 18.6105C30.5718 18.5828 30.634 18.5683 30.6971 18.5684H30.3162C30.2531 18.5684 30.1908 18.5828 30.1343 18.6105C30.0538 18.6523 29.9866 18.7153 29.9403 18.7927C29.894 18.87 29.8704 18.9585 29.8722 19.0484Z" fill="url(#paint12_linear_33_2121)"/>
<path d="M32.6803 17.3399C32.9138 17.568 33.0514 17.8748 33.0657 18.1988C33.086 18.5248 32.9828 18.8465 32.7763 19.1014C32.6733 19.2304 32.5424 19.335 32.3931 19.4075C32.2439 19.48 32.0801 19.5185 31.9138 19.5203C31.6264 19.5184 31.3513 19.4051 31.1476 19.2048L30.6109 18.6891C30.5324 18.6125 30.4267 18.5692 30.3163 18.5683C30.2532 18.5683 30.1909 18.5828 30.1344 18.6105C30.0539 18.6523 29.9867 18.7153 29.9405 18.7926C29.8942 18.87 29.8706 18.9585 29.8723 19.0483V35.5525C29.872 36.2405 29.3548 36.7998 28.7185 36.7998H6.34927C5.71335 36.7996 5.19591 36.2397 5.19628 35.5515V19.0483C5.19804 18.9585 5.17446 18.87 5.12816 18.7926C5.08187 18.7153 5.0147 18.6523 4.93418 18.6105C4.87767 18.5828 4.81542 18.5683 4.75232 18.5683C4.64189 18.5692 4.53615 18.6125 4.45752 18.6891L3.92103 19.2048C3.71729 19.4049 3.44223 19.5179 3.155 19.5197C2.98858 19.518 2.82466 19.4794 2.67529 19.4069C2.52592 19.3344 2.3949 19.2297 2.29182 19.1006C2.0856 18.8458 1.98247 18.5243 2.00244 18.1986C2.01711 17.8744 2.15499 17.5676 2.38853 17.3394L16.768 3.51525C16.8683 3.41541 16.9877 3.33617 17.1192 3.2821C17.2507 3.22803 17.3917 3.2002 17.5341 3.2002C17.6765 3.2002 17.8176 3.22803 17.9491 3.2821C18.0806 3.33617 18.1999 3.41541 18.3003 3.51525L32.6803 17.3399ZM27.5644 33.8242V15.9763C27.565 15.9098 27.5522 15.8438 27.5266 15.7822C27.5011 15.7206 27.4633 15.6647 27.4156 15.6177L17.8292 6.4015C17.7905 6.3631 17.7445 6.33262 17.6939 6.31182C17.6432 6.29102 17.5889 6.28032 17.5341 6.28032C17.4793 6.28032 17.425 6.29102 17.3743 6.31182C17.3237 6.33262 17.2777 6.3631 17.2391 6.4015L7.65301 15.6177C7.60528 15.6646 7.56751 15.7206 7.54195 15.7822C7.5164 15.8437 7.50355 15.9097 7.50417 15.9763V33.8242C7.50417 34.0893 7.70281 34.3039 7.94781 34.3039H9.70722C9.91739 34.3039 10.0985 34.1445 10.1414 33.9217C10.5612 31.7463 11.8034 29.8256 13.5499 28.6538C13.606 28.6149 13.6531 28.5648 13.6884 28.5067C13.7237 28.4487 13.7462 28.384 13.7546 28.3168C13.7644 28.2486 13.7601 28.1792 13.7421 28.1126C13.724 28.0461 13.6925 27.9839 13.6495 27.9297C12.8398 26.9296 12.3909 25.6473 12.3859 24.3202C12.3859 21.25 14.6953 18.7521 17.5341 18.7521C20.373 18.7521 22.6822 21.2501 22.6822 24.3182C22.6773 25.6473 22.2286 26.9296 21.4186 27.9297C21.3758 27.984 21.3444 28.0462 21.3263 28.1127C21.3083 28.1792 21.304 28.2486 21.3137 28.3168C21.3221 28.384 21.3446 28.4487 21.3799 28.5068C21.4152 28.5648 21.4625 28.6149 21.5186 28.6538C23.2651 29.8256 24.5072 31.7463 24.9266 33.9217C24.9696 34.1445 25.1511 34.3039 25.3612 34.3039H27.1204C27.3657 34.3039 27.5644 34.0894 27.5644 33.8242ZM22.3948 34.102C22.4361 34.0379 22.4627 33.9656 22.4726 33.8903C22.4825 33.8149 22.4755 33.7383 22.4522 33.666C21.9258 32.0342 20.7586 30.7715 19.2495 30.2019C18.702 29.9941 18.1206 29.8871 17.5341 29.8865C15.3216 29.8865 13.3451 31.4052 12.6163 33.666C12.5929 33.7383 12.586 33.8149 12.5958 33.8903C12.6057 33.9656 12.6322 34.0379 12.6735 34.102C12.7119 34.1629 12.7653 34.2132 12.8285 34.2485C12.8917 34.2838 12.9629 34.3028 13.0355 34.3039H22.0329C22.1055 34.3029 22.1767 34.2838 22.2399 34.2485C22.3031 34.2133 22.3564 34.1629 22.3948 34.102ZM14.6938 24.3206C14.6952 26.0124 15.9695 27.3902 17.5338 27.3918C19.1006 27.3918 20.3746 26.0137 20.3746 24.3202C20.3746 22.626 19.1006 21.2481 17.5341 21.2481C15.9677 21.2481 14.6938 22.626 14.6938 24.3206Z" fill="#F0F8FF"/>
<defs>
<filter id="filter0_f_33_2121" x="0.469238" y="0.200195" width="37.0681" height="39.5996" filterUnits="userSpaceOnUse" color-interpolation-filters="sRGB">
<feFlood flood-opacity="0" result="BackgroundImageFix"/>
<feBlend mode="normal" in="SourceGraphic" in2="BackgroundImageFix" result="shape"/>
<feGaussianBlur stdDeviation="1.5" result="effect1_foregroundBlur_33_2121"/>
</filter>
<linearGradient id="paint0_linear_33_2121" x1="20.6911" y1="2" x2="20.6911" y2="37.9999" gradientUnits="userSpaceOnUse">
<stop stop-color="#0440AD"/>
<stop offset="1" stop-color="#1869FF"/>
</linearGradient>
<linearGradient id="paint1_linear_33_2121" x1="20.6911" y1="2" x2="20.6911" y2="37.9999" gradientUnits="userSpaceOnUse">
<stop stop-color="#0440AD"/>
<stop offset="1" stop-color="#1869FF"/>
</linearGradient>
<linearGradient id="paint2_linear_33_2121" x1="20.6911" y1="2" x2="20.6911" y2="37.9999" gradientUnits="userSpaceOnUse">
<stop stop-color="#0440AD"/>
<stop offset="1" stop-color="#1869FF"/>
</linearGradient>
<linearGradient id="paint3_linear_33_2121" x1="20.6911" y1="2" x2="20.6911" y2="37.9999" gradientUnits="userSpaceOnUse">
<stop stop-color="#0440AD"/>
<stop offset="1" stop-color="#1869FF"/>
</linearGradient>
<linearGradient id="paint4_linear_33_2121" x1="20.6911" y1="2" x2="20.6911" y2="37.9999" gradientUnits="userSpaceOnUse">
<stop stop-color="#0440AD"/>
<stop offset="1" stop-color="#1869FF"/>
</linearGradient>
<linearGradient id="paint5_linear_33_2121" x1="20.6911" y1="2" x2="20.6911" y2="37.9999" gradientUnits="userSpaceOnUse">
<stop stop-color="#0440AD"/>
<stop offset="1" stop-color="#1869FF"/>
</linearGradient>
<linearGradient id="paint6_linear_33_2121" x1="18.302" y1="3.2002" x2="18.302" y2="36.7998" gradientUnits="userSpaceOnUse">
<stop stop-color="#81ADFF"/>
<stop offset="1" stop-color="#F0F8FF"/>
</linearGradient>
<linearGradient id="paint7_linear_33_2121" x1="18.302" y1="3.2002" x2="18.302" y2="36.7998" gradientUnits="userSpaceOnUse">
<stop stop-color="#81ADFF"/>
<stop offset="1" stop-color="#F0F8FF"/>
</linearGradient>
<linearGradient id="paint8_linear_33_2121" x1="18.302" y1="3.2002" x2="18.302" y2="36.7998" gradientUnits="userSpaceOnUse">
<stop stop-color="#81ADFF"/>
<stop offset="1" stop-color="#F0F8FF"/>
</linearGradient>
<linearGradient id="paint9_linear_33_2121" x1="18.302" y1="3.2002" x2="18.302" y2="36.7998" gradientUnits="userSpaceOnUse">
<stop stop-color="#81ADFF"/>
<stop offset="1" stop-color="#F0F8FF"/>
</linearGradient>
<linearGradient id="paint10_linear_33_2121" x1="18.302" y1="3.2002" x2="18.302" y2="36.7998" gradientUnits="userSpaceOnUse">
<stop stop-color="#81ADFF"/>
<stop offset="1" stop-color="#F0F8FF"/>
</linearGradient>
<linearGradient id="paint11_linear_33_2121" x1="18.302" y1="3.2002" x2="18.302" y2="36.7998" gradientUnits="userSpaceOnUse">
<stop stop-color="#81ADFF"/>
<stop offset="1" stop-color="#F0F8FF"/>
</linearGradient>
<linearGradient id="paint12_linear_33_2121" x1="18.302" y1="3.2002" x2="18.302" y2="36.7998" gradientUnits="userSpaceOnUse">
<stop stop-color="#81ADFF"/>
<stop offset="1" stop-color="#F0F8FF"/>
</linearGradient>
</defs>
</svg>
