<svg width="46" height="46" viewBox="0 0 46 46" fill="none" xmlns="http://www.w3.org/2000/svg">
<path fill-rule="evenodd" clip-rule="evenodd" d="M10.139 25.4337H17.8057C20.2226 25.3909 22.2191 27.3103 22.2715 29.727V37.3937C22.261 39.8134 20.3021 41.7724 17.8824 41.7829H10.2157C7.79893 41.8149 5.81105 39.887 5.76904 37.4704V29.8037C5.76904 27.3902 7.72556 25.4337 10.139 25.4337ZM17.8057 38.9079C18.642 38.9079 19.3199 38.2299 19.3199 37.3937V29.727C19.3199 29.3272 19.1598 28.944 18.8752 28.6631C18.5907 28.3821 18.2055 28.2269 17.8057 28.232H10.139C9.74254 28.232 9.36229 28.3895 9.08192 28.6699C8.80155 28.9503 8.64404 29.3305 8.64404 29.727V37.3937C8.64398 38.2225 9.31029 38.8974 10.139 38.9079H17.8057Z" fill="#01230B"/>
<path d="M15.4482 32.1612V31.0687C15.4482 30.2748 14.8046 29.6312 14.0107 29.6312C13.2168 29.6312 12.5732 30.2748 12.5732 31.0687V32.1612H11.4999C10.706 32.1612 10.0624 32.8048 10.0624 33.5987C10.0624 34.3926 10.706 35.0362 11.4999 35.0362H12.5924V36.1479C12.5924 36.9418 13.236 37.5854 14.0299 37.5854C14.8238 37.5854 15.4674 36.9418 15.4674 36.1479V35.0362H16.579C17.373 35.0362 18.0165 34.3926 18.0165 33.5987C18.0165 32.8048 17.373 32.1612 16.579 32.1612H15.4482Z" fill="#01230B"/>
<path fill-rule="evenodd" clip-rule="evenodd" d="M25.0124 4.65702L38.429 18.0737C38.7142 18.3641 38.8668 18.7595 38.8507 19.1662V32.5829C38.8507 37.6109 34.7746 41.687 29.7465 41.687H24.2457C23.4518 41.687 22.8082 41.0434 22.8082 40.2495C22.8082 39.4556 23.4518 38.812 24.2457 38.812H29.7465C33.1868 38.812 35.9757 36.0231 35.9757 32.5829V20.6037H27.8299C24.9189 20.6037 22.559 18.2439 22.559 15.3329V7.16785H18.2465C14.8032 7.17841 12.0174 9.9728 12.0174 13.4162V22.9995C12.0174 23.7934 11.3738 24.437 10.5799 24.437C9.78597 24.437 9.14238 23.7934 9.14238 22.9995V13.4162C9.12193 10.9884 10.0721 8.65293 11.7817 6.92895C13.4913 5.20497 15.8186 4.23527 18.2465 4.23535H23.9965C24.3777 4.23569 24.7431 4.38736 25.0124 4.65702ZM25.434 9.14202V15.3329C25.4446 16.6485 26.5141 17.7096 27.8299 17.7095H34.0015L25.434 9.14202Z" fill="#01230B"/>
</svg>
