<svg width="28" height="28" viewBox="0 0 28 28" fill="none" xmlns="http://www.w3.org/2000/svg">
<path fill-rule="evenodd" clip-rule="evenodd" d="M16.1918 4.32493C17.5586 2.9581 19.7747 2.95809 21.1415 4.32493L23.675 6.85843C25.0419 8.22527 25.0419 10.4413 23.675 11.8082L13.3166 22.1666H24.5C25.1443 22.1666 25.6667 22.689 25.6667 23.3333C25.6667 23.9776 25.1443 24.5 24.5 24.5H4.66667C4.02233 24.5 3.5 23.9776 3.5 23.3333V17.5C3.5 17.1906 3.62292 16.8938 3.84171 16.675L16.1918 4.32493ZM10.0168 22.1666L19.3501 12.8333L15.1667 8.64989L5.83333 17.9832V22.1666H10.0168ZM16.8166 6.99997L21 11.1834L22.0251 10.1583C22.4807 9.70265 22.4807 8.96396 22.0251 8.50835L19.4916 5.97485C19.036 5.51924 18.2973 5.51923 17.8417 5.97485L16.8166 6.99997Z" fill="#01230B"/>
</svg>
