<svg width="24" height="19" viewBox="0 0 24 19" fill="none" xmlns="http://www.w3.org/2000/svg">
<path d="M1.00012 11.62L4.14607 10.4332C5.9843 9.7358 8.03225 9.8092 9.82113 10.6534L14.8546 13.0148C15.4592 13.2962 15.7182 14.0181 15.4468 14.6176C15.1877 15.1804 14.5462 15.4618 13.954 15.266L9.46335 13.8835" stroke="#01230B" stroke-miterlimit="10" stroke-linecap="round" stroke-linejoin="round"/>
<path d="M1.00012 17.9456L2.91237 16.6364C4.1214 15.8044 5.66353 15.6331 7.02061 16.1593L11.9554 18.0557C12.9671 18.4472 14.1144 18.2882 14.9657 17.6275L22.6517 11.7669C23.2685 11.302 23.3796 10.4333 22.9108 9.82153C22.4666 9.24648 21.6524 9.1119 21.0479 9.50342L15.1754 13.2473" stroke="#01230B" stroke-miterlimit="10" stroke-linecap="round" stroke-linejoin="round"/>
<path d="M12.8807 7.37445H9.29066C7.51413 7.37445 6.07069 5.94295 6.08303 4.18111C6.08303 2.41927 7.52646 1 9.303 1H12.8931L12.8807 7.37445Z" stroke="white" stroke-miterlimit="10" stroke-linecap="round" stroke-linejoin="round"/>
<path d="M16.4585 7.38663H12.8807L12.8931 1.01221H16.4708C18.2474 1.01221 19.6785 2.4437 19.6785 4.20554C19.6785 5.08646 19.3207 5.88174 18.7408 6.45678C18.1487 7.03183 17.3468 7.38663 16.4585 7.38663Z" stroke="#01230B" stroke-miterlimit="10" stroke-linecap="round" stroke-linejoin="round"/>
<path d="M12.0663 2.46815C12.2298 2.46815 12.3623 2.33668 12.3623 2.17451C12.3623 2.01233 12.2298 1.88086 12.0663 1.88086C11.9028 1.88086 11.7703 2.01233 11.7703 2.17451C11.7703 2.33668 11.9028 2.46815 12.0663 2.46815Z" fill="#01230B"/>
<path d="M12.0663 4.46228C12.2298 4.46228 12.3623 4.33082 12.3623 4.16865C12.3623 4.00647 12.2298 3.875 12.0663 3.875C11.9028 3.875 11.7703 4.00647 11.7703 4.16865C11.7703 4.33082 11.9028 4.46228 12.0663 4.46228Z" fill="#01230B"/>
<path d="M12.054 6.46911C12.2175 6.46911 12.35 6.33766 12.35 6.17548C12.35 6.01331 12.2175 5.88184 12.054 5.88184C11.8905 5.88184 11.758 6.01331 11.758 6.17548C11.758 6.33766 11.8905 6.46911 12.054 6.46911Z" fill="#01230B"/>
<path d="M10.1787 2.46815C10.3422 2.46815 10.4747 2.33668 10.4747 2.17451C10.4747 2.01233 10.3422 1.88086 10.1787 1.88086C10.0152 1.88086 9.88269 2.01233 9.88269 2.17451C9.88269 2.33668 10.0152 2.46815 10.1787 2.46815Z" fill="#01230B"/>
<path d="M10.1787 4.46228C10.3422 4.46228 10.4747 4.33082 10.4747 4.16865C10.4747 4.00647 10.3422 3.875 10.1787 3.875C10.0152 3.875 9.88269 4.00647 9.88269 4.16865C9.88269 4.33082 10.0152 4.46228 10.1787 4.46228Z" fill="#01230B"/>
<path d="M10.1787 6.46911C10.3422 6.46911 10.4747 6.33766 10.4747 6.17548C10.4747 6.01331 10.3422 5.88184 10.1787 5.88184C10.0152 5.88184 9.88269 6.01331 9.88269 6.17548C9.88269 6.33766 10.0152 6.46911 10.1787 6.46911Z" fill="#01230B"/>
<path d="M8.29118 2.46815C8.45465 2.46815 8.58718 2.33668 8.58718 2.17451C8.58718 2.01233 8.45465 1.88086 8.29118 1.88086C8.1277 1.88086 7.99518 2.01233 7.99518 2.17451C7.99518 2.33668 8.1277 2.46815 8.29118 2.46815Z" fill="#01230B"/>
<path d="M8.29118 4.46228C8.45465 4.46228 8.58718 4.33082 8.58718 4.16865C8.58718 4.00647 8.45465 3.875 8.29118 3.875C8.1277 3.875 7.99518 4.00647 7.99518 4.16865C7.99518 4.33082 8.1277 4.46228 8.29118 4.46228Z" fill="#01230B"/>
<path d="M8.29118 6.4569C8.45465 6.4569 8.58718 6.32543 8.58718 6.16326C8.58718 6.00108 8.45465 5.86963 8.29118 5.86963C8.1277 5.86963 7.99518 6.00108 7.99518 6.16326C7.99518 6.32543 8.1277 6.4569 8.29118 6.4569Z" fill="#01230B"/>
<path d="M11.1163 3.44665C11.2798 3.44665 11.4123 3.31519 11.4123 3.15302C11.4123 2.99085 11.2798 2.85938 11.1163 2.85938C10.9528 2.85938 10.8203 2.99085 10.8203 3.15302C10.8203 3.31519 10.9528 3.44665 11.1163 3.44665Z" fill="#01230B"/>
<path d="M11.1163 5.44128C11.2798 5.44128 11.4123 5.30981 11.4123 5.14763C11.4123 4.98546 11.2798 4.854 11.1163 4.854C10.9528 4.854 10.8203 4.98546 10.8203 5.14763C10.8203 5.30981 10.9528 5.44128 11.1163 5.44128Z" fill="#01230B"/>
<path d="M9.22886 3.44665C9.39234 3.44665 9.52486 3.31519 9.52486 3.15302C9.52486 2.99085 9.39234 2.85938 9.22886 2.85938C9.06538 2.85938 8.93286 2.99085 8.93286 3.15302C8.93286 3.31519 9.06538 3.44665 9.22886 3.44665Z" fill="#01230B"/>
<path d="M9.22886 5.44128C9.39234 5.44128 9.52486 5.30981 9.52486 5.14763C9.52486 4.98546 9.39234 4.854 9.22886 4.854C9.06538 4.854 8.93286 4.98546 8.93286 5.14763C8.93286 5.30981 9.06538 5.44128 9.22886 5.44128Z" fill="#01230B"/>
<path d="M7.31669 3.44665C7.48017 3.44665 7.61269 3.31519 7.61269 3.15302C7.61269 2.99085 7.48017 2.85938 7.31669 2.85938C7.15321 2.85938 7.02069 2.99085 7.02069 3.15302C7.02069 3.31519 7.15321 3.44665 7.31669 3.44665Z" fill="#01230B"/>
<path d="M7.30418 5.44128C7.46765 5.44128 7.60018 5.30981 7.60018 5.14763C7.60018 4.98546 7.46765 4.854 7.30418 4.854C7.1407 4.854 7.00818 4.98546 7.00818 5.14763C7.00818 5.30981 7.1407 5.44128 7.30418 5.44128Z" fill="#01230B"/>
</svg>
