<svg width="21" height="21" viewBox="0 0 21 21" fill="none" xmlns="http://www.w3.org/2000/svg">
<path d="M18.6119 4.34512C17.9328 4.66595 16.7769 5.26762 16.1961 5.38262C16.1736 5.38845 16.1553 5.39595 16.1336 5.40178C15.4561 4.73345 14.5278 4.31928 13.5003 4.31928C11.4294 4.31928 9.75027 5.99845 9.75027 8.06928C9.75027 8.17845 9.7411 8.37928 9.75027 8.48595C7.0686 8.48595 5.11027 7.08678 3.64444 5.28845C3.4486 5.04678 3.24027 5.17262 3.19694 5.34428C3.09944 5.73262 3.0661 6.38178 3.0661 6.84512C3.0661 8.01262 3.9786 9.15928 5.39944 9.87012C5.13777 9.93762 4.84944 9.98595 4.54944 9.98595C4.1961 9.98595 3.78944 9.89345 3.4336 9.70678C3.30194 9.63762 3.01777 9.65678 3.10194 9.99345C3.43944 11.3426 4.97944 12.2901 6.35527 12.566C6.04277 12.7501 5.3761 12.7126 5.06944 12.7126C4.9561 12.7126 4.56194 12.686 4.30694 12.6543C4.07444 12.6259 3.71694 12.686 4.0161 13.1393C4.6586 14.1118 6.11194 14.7226 7.36277 14.7459C6.2111 15.6493 4.32777 15.9793 2.5236 15.9793C2.1586 15.971 2.17694 16.3868 2.4711 16.541C3.80194 17.2393 5.98194 17.6526 7.53944 17.6526C13.7311 17.6526 17.2503 12.9334 17.2503 8.48512C17.2503 8.41345 17.2486 8.26345 17.2461 8.11262C17.2461 8.09762 17.2503 8.08345 17.2503 8.06845C17.2503 8.04595 17.2436 8.02428 17.2436 8.00178C17.2411 7.88845 17.2386 7.78262 17.2361 7.72762C17.7269 7.37345 18.4786 6.75845 18.8586 6.28762C18.9878 6.12762 18.8836 5.93345 18.7078 5.99428C18.2553 6.15178 17.4728 6.45678 16.9828 6.51512C17.9636 5.86595 18.4486 5.30095 18.8653 4.67345C19.0078 4.45928 18.8294 4.24178 18.6119 4.34512Z" fill="white"/>
</svg>
