<svg width="21" height="21" viewBox="0 0 21 21" fill="none" xmlns="http://www.w3.org/2000/svg">
<path d="M3.9165 8.20774H6.69428V17.6522H3.9165V8.20774ZM5.29706 7.09663H5.2815C4.45261 7.09663 3.9165 6.47885 3.9165 5.70718C3.9165 4.91885 4.46928 4.31885 5.31317 4.31885C6.15817 4.31885 6.67873 4.91885 6.69428 5.70718C6.69428 6.47829 6.15817 7.09663 5.29706 7.09663ZM17.2498 17.6522H14.4721V12.5972C14.4721 11.3761 13.7915 10.5427 12.6987 10.5427C11.8648 10.5427 11.4137 11.105 11.1948 11.6483C11.1148 11.8427 11.1387 12.3805 11.1387 12.6522V17.6522H8.36095V8.20774H11.1387V9.66107C11.5393 9.04107 12.1665 8.20774 13.7709 8.20774C15.7587 8.20774 17.2493 9.45774 17.2493 12.2488L17.2498 17.6522Z" fill="white"/>
</svg>
