<svg width="21" height="21" viewBox="0 0 21 21" fill="none" xmlns="http://www.w3.org/2000/svg">
<path d="M3.91669 8.2092H6.69446V17.6536H3.91669V8.2092ZM5.29724 7.09809H5.28169C4.4528 7.09809 3.91669 6.48031 3.91669 5.70865C3.91669 4.92031 4.46946 4.32031 5.31335 4.32031C6.15835 4.32031 6.67891 4.92031 6.69446 5.70865C6.69446 6.47976 6.15835 7.09809 5.29724 7.09809ZM17.25 17.6536H14.4722V12.5986C14.4722 11.3775 13.7917 10.5442 12.6989 10.5442C11.865 10.5442 11.4139 11.1064 11.195 11.6498C11.115 11.8442 11.1389 12.382 11.1389 12.6536V17.6536H8.36113V8.2092H11.1389V9.66253C11.5395 9.04253 12.1667 8.2092 13.7711 8.2092C15.7589 8.2092 17.2495 9.4592 17.2495 12.2503L17.25 17.6536Z" fill="white"/>
</svg>
