<svg width="21" height="21" viewBox="0 0 21 21" fill="none" xmlns="http://www.w3.org/2000/svg">
<path d="M3.91699 8.20725H6.69477V17.6517H3.91699V8.20725ZM5.29755 7.09614H5.28199C4.4531 7.09614 3.91699 6.47836 3.91699 5.70669C3.91699 4.91836 4.46977 4.31836 5.31366 4.31836C6.15866 4.31836 6.67921 4.91836 6.69477 5.70669C6.69477 6.4778 6.15866 7.09614 5.29755 7.09614ZM17.2503 17.6517H14.4725V12.5967C14.4725 11.3756 13.792 10.5422 12.6992 10.5422C11.8653 10.5422 11.4142 11.1045 11.1953 11.6478C11.1153 11.8422 11.1392 12.38 11.1392 12.6517V17.6517H8.36144V8.20725H11.1392V9.66058C11.5398 9.04058 12.167 8.20725 13.7714 8.20725C15.7592 8.20725 17.2498 9.45725 17.2498 12.2484L17.2503 17.6517Z" fill="white"/>
</svg>
