<svg width="21" height="21" viewBox="0 0 21 21" fill="none" xmlns="http://www.w3.org/2000/svg">
<path d="M5.67439 6.98584C3.28284 6.98584 1.37028 9.03804 1.60265 11.4779C1.80556 13.6051 3.71308 15.1677 5.85017 15.1677H8.12894C8.58058 15.1677 8.94713 14.8011 8.94713 14.3495C8.94713 13.8979 8.58058 13.5313 8.12894 13.5313H5.81342C4.48469 13.5313 3.29336 12.5357 3.22463 11.2078C3.15018 9.79234 4.2753 8.62221 5.67439 8.62221H8.12894C8.58058 8.62221 8.94713 8.25566 8.94713 7.80402C8.94713 7.35239 8.58058 6.98584 8.12894 6.98584H5.67439ZM13.038 6.98584C12.5864 6.98584 12.2199 7.35239 12.2199 7.80402C12.2199 8.25566 12.5864 8.62221 13.038 8.62221H15.3536C16.6823 8.62221 17.8736 9.61781 17.9424 10.9457C18.0168 12.3612 16.8917 13.5313 15.4926 13.5313H13.038C12.5864 13.5313 12.2199 13.8979 12.2199 14.3495C12.2199 14.8011 12.5864 15.1677 13.038 15.1677H15.4926C17.8842 15.1677 19.7967 13.1155 19.5643 10.6757C19.3614 8.54838 17.4539 6.98584 15.3168 6.98584H13.038ZM7.31076 10.2586C6.85912 10.2586 6.49258 10.6251 6.49258 11.0768C6.49258 11.5284 6.85912 11.8949 7.31076 11.8949H13.8562C14.3079 11.8949 14.6744 11.5284 14.6744 11.0768C14.6744 10.6251 14.3079 10.2586 13.8562 10.2586H7.31076Z" fill="#0F528B"/>
</svg>
