<svg width="21" height="21" viewBox="0 0 21 21" fill="none" xmlns="http://www.w3.org/2000/svg">
<path d="M3.9165 8.20725H6.69428V17.6517H3.9165V8.20725ZM5.29706 7.09614H5.2815C4.45261 7.09614 3.9165 6.47836 3.9165 5.70669C3.9165 4.91836 4.46928 4.31836 5.31317 4.31836C6.15817 4.31836 6.67873 4.91836 6.69428 5.70669C6.69428 6.4778 6.15817 7.09614 5.29706 7.09614ZM17.2498 17.6517H14.4721V12.5967C14.4721 11.3756 13.7915 10.5422 12.6987 10.5422C11.8648 10.5422 11.4137 11.1045 11.1948 11.6478C11.1148 11.8422 11.1387 12.38 11.1387 12.6517V17.6517H8.36095V8.20725H11.1387V9.66058C11.5393 9.04058 12.1665 8.20725 13.7709 8.20725C15.7587 8.20725 17.2493 9.45725 17.2493 12.2484L17.2498 17.6517Z" fill="white"/>
</svg>
