<svg width="21" height="21" viewBox="0 0 21 21" fill="none" xmlns="http://www.w3.org/2000/svg">
<path d="M3.91699 8.20774H6.69477V17.6522H3.91699V8.20774ZM5.29755 7.09663H5.28199C4.4531 7.09663 3.91699 6.47885 3.91699 5.70718C3.91699 4.91885 4.46977 4.31885 5.31366 4.31885C6.15866 4.31885 6.67921 4.91885 6.69477 5.70718C6.69477 6.47829 6.15866 7.09663 5.29755 7.09663ZM17.2503 17.6522H14.4725V12.5972C14.4725 11.3761 13.792 10.5427 12.6992 10.5427C11.8653 10.5427 11.4142 11.105 11.1953 11.6483C11.1153 11.8427 11.1392 12.3805 11.1392 12.6522V17.6522H8.36144V8.20774H11.1392V9.66107C11.5398 9.04107 12.167 8.20774 13.7714 8.20774C15.7592 8.20774 17.2498 9.45774 17.2498 12.2488L17.2503 17.6522Z" fill="white"/>
</svg>
