<svg width="21" height="21" viewBox="0 0 21 21" fill="none" xmlns="http://www.w3.org/2000/svg">
<path d="M5.67424 6.98535C3.28269 6.98535 1.37013 9.03755 1.6025 11.4774C1.80541 13.6047 3.71293 15.1672 5.85002 15.1672H8.12879C8.58043 15.1672 8.94698 14.8006 8.94698 14.349C8.94698 13.8974 8.58043 13.5308 8.12879 13.5308H5.81327C4.48454 13.5308 3.29321 12.5352 3.22448 11.2073C3.15003 9.79185 4.27515 8.62172 5.67424 8.62172H8.12879C8.58043 8.62172 8.94698 8.25517 8.94698 7.80354C8.94698 7.3519 8.58043 6.98535 8.12879 6.98535H5.67424ZM13.0379 6.98535C12.5863 6.98535 12.2197 7.3519 12.2197 7.80354C12.2197 8.25517 12.5863 8.62172 13.0379 8.62172H15.3534C16.6822 8.62172 17.8735 9.61732 17.9422 10.9452C18.0167 12.3607 16.8915 13.5308 15.4924 13.5308H13.0379C12.5863 13.5308 12.2197 13.8974 12.2197 14.349C12.2197 14.8006 12.5863 15.1672 13.0379 15.1672H15.4924C17.884 15.1672 19.7966 13.115 19.5642 10.6752C19.3613 8.54789 17.4538 6.98535 15.3167 6.98535H13.0379ZM7.31061 10.2581C6.85897 10.2581 6.49242 10.6246 6.49242 11.0763C6.49242 11.5279 6.85897 11.8945 7.31061 11.8945H13.8561C14.3077 11.8945 14.6743 11.5279 14.6743 11.0763C14.6743 10.6246 14.3077 10.2581 13.8561 10.2581H7.31061Z" fill="#0F528B"/>
</svg>
