<svg width="21" height="21" viewBox="0 0 21 21" fill="none" xmlns="http://www.w3.org/2000/svg">
<path d="M5.67424 6.98584C3.28269 6.98584 1.37013 9.03804 1.6025 11.4779C1.80541 13.6051 3.71293 15.1677 5.85002 15.1677H8.12879C8.58043 15.1677 8.94698 14.8011 8.94698 14.3495C8.94698 13.8979 8.58043 13.5313 8.12879 13.5313H5.81327C4.48454 13.5313 3.29321 12.5357 3.22448 11.2078C3.15003 9.79234 4.27515 8.62221 5.67424 8.62221H8.12879C8.58043 8.62221 8.94698 8.25566 8.94698 7.80402C8.94698 7.35239 8.58043 6.98584 8.12879 6.98584H5.67424ZM13.0379 6.98584C12.5863 6.98584 12.2197 7.35239 12.2197 7.80402C12.2197 8.25566 12.5863 8.62221 13.0379 8.62221H15.3534C16.6822 8.62221 17.8735 9.61781 17.9422 10.9457C18.0167 12.3612 16.8915 13.5313 15.4924 13.5313H13.0379C12.5863 13.5313 12.2197 13.8979 12.2197 14.3495C12.2197 14.8011 12.5863 15.1677 13.0379 15.1677H15.4924C17.884 15.1677 19.7966 13.1155 19.5642 10.6757C19.3613 8.54838 17.4538 6.98584 15.3167 6.98584H13.0379ZM7.31061 10.2586C6.85897 10.2586 6.49242 10.6251 6.49242 11.0768C6.49242 11.5284 6.85897 11.8949 7.31061 11.8949H13.8561C14.3077 11.8949 14.6743 11.5284 14.6743 11.0768C14.6743 10.6251 14.3077 10.2586 13.8561 10.2586H7.31061Z" fill="#0F528B"/>
</svg>
