<svg width="40" height="40" viewBox="0 0 40 40" fill="none" xmlns="http://www.w3.org/2000/svg">
<path d="M5.7 36.612V36.112H5.2H3.508C1.84451 36.112 0.5 34.7642 0.5 33.104V13.22C0.5 11.5594 1.84888 10.208 3.508 10.208H9.472C10.1324 10.208 10.676 9.67581 10.676 9.00796V3.16396C10.676 3.04838 10.7678 2.95996 10.876 2.95996H29.12C29.2319 2.95996 29.324 3.0521 29.324 3.16396V9.00796C29.324 9.67396 29.8657 10.208 30.524 10.208H36.492C38.1515 10.208 39.5 11.5597 39.5 13.216V33.104C39.5 34.7674 38.1522 36.112 36.492 36.112H35.368H34.868V36.612V36.7636C34.8554 36.7804 34.8187 36.8186 34.7232 36.8687C34.5532 36.9579 34.2849 37.028 33.964 37.028H28.292C27.9711 37.028 27.7028 36.9579 27.5328 36.8687C27.4373 36.8186 27.4006 36.7804 27.388 36.7636V36.612V36.112H26.888H13.672H13.172V36.612V36.765C13.1598 36.7816 13.1238 36.8195 13.0297 36.8692C12.8619 36.9578 12.5952 37.028 12.272 37.028H6.6C6.27677 37.028 6.01008 36.9578 5.84234 36.8692C5.74815 36.8195 5.71222 36.7816 5.7 36.765V36.612ZM34.8739 36.7542C34.8739 36.7542 34.8736 36.7549 34.8729 36.7562C34.8735 36.7548 34.8738 36.7542 34.8739 36.7542ZM27.3821 36.7542C27.3822 36.7542 27.3825 36.7548 27.3831 36.7562C27.3823 36.7549 27.3821 36.7542 27.3821 36.7542ZM13.1776 36.7558C13.1776 36.7559 13.1774 36.7566 13.1765 36.7581C13.1771 36.7566 13.1775 36.7558 13.1776 36.7558ZM5.69441 36.7558C5.69447 36.7558 5.69487 36.7565 5.69544 36.7581C5.69464 36.7566 5.69436 36.7559 5.69441 36.7558ZM21.188 9.70796V10.208H21.688H23.156C23.8223 10.208 24.36 9.67396 24.36 9.00796V6.55596C24.36 5.89367 23.826 5.35196 23.156 5.35196H16.84C16.178 5.35196 15.64 5.89367 15.64 6.55596V9.00796C15.64 9.67396 16.1817 10.208 16.84 10.208H18.296H18.796V9.70796V9.68796C18.796 9.57824 18.886 9.48796 18.996 9.48796H20.988C21.0959 9.48796 21.188 9.5801 21.188 9.68796V9.70796ZM25.004 25.624C25.4683 25.624 25.848 25.2519 25.848 24.784V22.396C25.848 21.9358 25.4721 21.556 25.004 21.556H22.316V18.868C22.316 18.4038 21.9401 18.028 21.476 18.028H19.092C18.6277 18.028 18.248 18.4 18.248 18.868V21.556H15.556C15.0882 21.556 14.72 21.9435 14.72 22.396V24.784C14.72 25.2403 15.0842 25.624 15.556 25.624H18.248V28.316C18.248 28.7839 18.6277 29.156 19.092 29.156H21.476C21.9401 29.156 22.316 28.7801 22.316 28.316V25.624H25.004Z" fill="#F3F4F7" stroke="#EFEDED"/>
</svg>
