<svg width="21" height="21" viewBox="0 0 21 21" fill="none" xmlns="http://www.w3.org/2000/svg">
<path d="M3.91675 8.20725H6.69453V17.6517H3.91675V8.20725ZM5.2973 7.09614H5.28175C4.45286 7.09614 3.91675 6.47836 3.91675 5.70669C3.91675 4.91836 4.46953 4.31836 5.31341 4.31836C6.15841 4.31836 6.67897 4.91836 6.69453 5.70669C6.69453 6.4778 6.15841 7.09614 5.2973 7.09614ZM17.2501 17.6517H14.4723V12.5967C14.4723 11.3756 13.7917 10.5422 12.699 10.5422C11.8651 10.5422 11.414 11.1045 11.1951 11.6478C11.1151 11.8422 11.139 12.38 11.139 12.6517V17.6517H8.36119V8.20725H11.139V9.66058C11.5395 9.04058 12.1667 8.20725 13.7712 8.20725C15.759 8.20725 17.2495 9.45725 17.2495 12.2484L17.2501 17.6517Z" fill="white"/>
</svg>
