<svg width="21" height="21" viewBox="0 0 21 21" fill="none" xmlns="http://www.w3.org/2000/svg">
<path d="M3.91699 8.20798H6.69477V17.6524H3.91699V8.20798ZM5.29755 7.09687H5.28199C4.4531 7.09687 3.91699 6.47909 3.91699 5.70742C3.91699 4.91909 4.46977 4.31909 5.31366 4.31909C6.15866 4.31909 6.67921 4.91909 6.69477 5.70742C6.69477 6.47854 6.15866 7.09687 5.29755 7.09687ZM17.2503 17.6524H14.4725V12.5974C14.4725 11.3763 13.792 10.543 12.6992 10.543C11.8653 10.543 11.4142 11.1052 11.1953 11.6485C11.1153 11.843 11.1392 12.3808 11.1392 12.6524V17.6524H8.36144V8.20798H11.1392V9.66131C11.5398 9.04131 12.167 8.20798 13.7714 8.20798C15.7592 8.20798 17.2498 9.45798 17.2498 12.2491L17.2503 17.6524Z" fill="white"/>
</svg>
