<svg width="21" height="21" viewBox="0 0 21 21" fill="none" xmlns="http://www.w3.org/2000/svg">
<path d="M18.6117 4.34512C17.9325 4.66595 16.7767 5.26762 16.1959 5.38262C16.1734 5.38845 16.155 5.39595 16.1334 5.40178C15.4559 4.73345 14.5275 4.31928 13.5 4.31928C11.4292 4.31928 9.75003 5.99845 9.75003 8.06928C9.75003 8.17845 9.74086 8.37928 9.75003 8.48595C7.06836 8.48595 5.11003 7.08678 3.64419 5.28845C3.44836 5.04678 3.24003 5.17262 3.19669 5.34428C3.09919 5.73262 3.06586 6.38178 3.06586 6.84512C3.06586 8.01262 3.97836 9.15928 5.39919 9.87012C5.13753 9.93762 4.84919 9.98595 4.54919 9.98595C4.19586 9.98595 3.78919 9.89345 3.43336 9.70678C3.30169 9.63762 3.01753 9.65678 3.10169 9.99345C3.43919 11.3426 4.97919 12.2901 6.35503 12.566C6.04253 12.7501 5.37586 12.7126 5.06919 12.7126C4.95586 12.7126 4.56169 12.686 4.30669 12.6543C4.07419 12.6259 3.71669 12.686 4.01586 13.1393C4.65836 14.1118 6.11169 14.7226 7.36253 14.7459C6.21086 15.6493 4.32753 15.9793 2.52336 15.9793C2.15836 15.971 2.17669 16.3868 2.47086 16.541C3.80169 17.2393 5.98169 17.6526 7.53919 17.6526C13.7309 17.6526 17.25 12.9334 17.25 8.48512C17.25 8.41345 17.2484 8.26345 17.2459 8.11262C17.2459 8.09762 17.25 8.08345 17.25 8.06845C17.25 8.04595 17.2434 8.02428 17.2434 8.00178C17.2409 7.88845 17.2384 7.78262 17.2359 7.72762C17.7267 7.37345 18.4784 6.75845 18.8584 6.28762C18.9875 6.12762 18.8834 5.93345 18.7075 5.99428C18.255 6.15178 17.4725 6.45678 16.9825 6.51512C17.9634 5.86595 18.4484 5.30095 18.865 4.67345C19.0075 4.45928 18.8292 4.24178 18.6117 4.34512Z" fill="white"/>
</svg>
