<svg width="21" height="21" viewBox="0 0 21 21" fill="none" xmlns="http://www.w3.org/2000/svg">
<path d="M3.91669 8.20774H6.69446V17.6522H3.91669V8.20774ZM5.29724 7.09663H5.28169C4.4528 7.09663 3.91669 6.47885 3.91669 5.70718C3.91669 4.91885 4.46946 4.31885 5.31335 4.31885C6.15835 4.31885 6.67891 4.91885 6.69446 5.70718C6.69446 6.47829 6.15835 7.09663 5.29724 7.09663ZM17.25 17.6522H14.4722V12.5972C14.4722 11.3761 13.7917 10.5427 12.6989 10.5427C11.865 10.5427 11.4139 11.105 11.195 11.6483C11.115 11.8427 11.1389 12.3805 11.1389 12.6522V17.6522H8.36113V8.20774H11.1389V9.66107C11.5395 9.04107 12.1667 8.20774 13.7711 8.20774C15.7589 8.20774 17.2495 9.45774 17.2495 12.2488L17.25 17.6522Z" fill="white"/>
</svg>
