<svg width="21" height="21" viewBox="0 0 21 21" fill="none" xmlns="http://www.w3.org/2000/svg">
<path d="M5.67415 6.98535C3.2826 6.98535 1.37004 9.03755 1.6024 11.4774C1.80531 13.6047 3.71283 15.1672 5.84993 15.1672H8.1287C8.58034 15.1672 8.94688 14.8006 8.94688 14.349C8.94688 13.8974 8.58034 13.5308 8.1287 13.5308H5.81318C4.48444 13.5308 3.29312 12.5352 3.22439 11.2073C3.14994 9.79185 4.27505 8.62172 5.67415 8.62172H8.1287C8.58034 8.62172 8.94688 8.25517 8.94688 7.80354C8.94688 7.3519 8.58034 6.98535 8.1287 6.98535H5.67415ZM13.0378 6.98535C12.5862 6.98535 12.2196 7.3519 12.2196 7.80354C12.2196 8.25517 12.5862 8.62172 13.0378 8.62172H15.3533C16.6821 8.62172 17.8734 9.61732 17.9421 10.9452C18.0166 12.3607 16.8915 13.5308 15.4924 13.5308H13.0378C12.5862 13.5308 12.2196 13.8974 12.2196 14.349C12.2196 14.8006 12.5862 15.1672 13.0378 15.1672H15.4924C17.8839 15.1672 19.7965 13.115 19.5641 10.6752C19.3612 8.54789 17.4537 6.98535 15.3166 6.98535H13.0378ZM7.31052 10.2581C6.85888 10.2581 6.49233 10.6246 6.49233 11.0763C6.49233 11.5279 6.85888 11.8945 7.31052 11.8945H13.856C14.3076 11.8945 14.6742 11.5279 14.6742 11.0763C14.6742 10.6246 14.3076 10.2581 13.856 10.2581H7.31052Z" fill="#0F528B"/>
</svg>
