<svg width="21" height="21" viewBox="0 0 21 21" fill="none" xmlns="http://www.w3.org/2000/svg">
<path d="M18.6119 4.34438C17.9328 4.66522 16.7769 5.26688 16.1961 5.38188C16.1736 5.38772 16.1553 5.39522 16.1336 5.40105C15.4561 4.73272 14.5278 4.31855 13.5003 4.31855C11.4294 4.31855 9.75027 5.99772 9.75027 8.06855C9.75027 8.17772 9.7411 8.37855 9.75027 8.48522C7.0686 8.48522 5.11027 7.08605 3.64444 5.28772C3.4486 5.04605 3.24027 5.17188 3.19694 5.34355C3.09944 5.73188 3.0661 6.38105 3.0661 6.84438C3.0661 8.01188 3.9786 9.15855 5.39944 9.86938C5.13777 9.93688 4.84944 9.98522 4.54944 9.98522C4.1961 9.98522 3.78944 9.89272 3.4336 9.70605C3.30194 9.63688 3.01777 9.65605 3.10194 9.99272C3.43944 11.3419 4.97944 12.2894 6.35527 12.5652C6.04277 12.7494 5.3761 12.7119 5.06944 12.7119C4.9561 12.7119 4.56194 12.6852 4.30694 12.6536C4.07444 12.6252 3.71694 12.6852 4.0161 13.1386C4.6586 14.1111 6.11194 14.7219 7.36277 14.7452C6.2111 15.6486 4.32777 15.9786 2.5236 15.9786C2.1586 15.9702 2.17694 16.3861 2.4711 16.5402C3.80194 17.2386 5.98194 17.6519 7.53944 17.6519C13.7311 17.6519 17.2503 12.9327 17.2503 8.48438C17.2503 8.41272 17.2486 8.26272 17.2461 8.11188C17.2461 8.09688 17.2503 8.08272 17.2503 8.06772C17.2503 8.04522 17.2436 8.02355 17.2436 8.00105C17.2411 7.88772 17.2386 7.78188 17.2361 7.72688C17.7269 7.37272 18.4786 6.75772 18.8586 6.28688C18.9878 6.12688 18.8836 5.93272 18.7078 5.99355C18.2553 6.15105 17.4728 6.45605 16.9828 6.51438C17.9636 5.86522 18.4486 5.30022 18.8653 4.67272C19.0078 4.45855 18.8294 4.24105 18.6119 4.34438Z" fill="white"/>
</svg>
