<svg width="55" height="57" viewBox="0 0 55 57" fill="none" xmlns="http://www.w3.org/2000/svg">
<path d="M43.9455 35.5703C43.6493 36.272 43.5609 37.0503 43.6918 37.805C43.8227 38.5597 44.1668 39.2561 44.6798 39.8044L44.8133 39.944C45.2271 40.3761 45.5554 40.8893 45.7794 41.4541C46.0034 42.019 46.1186 42.6244 46.1186 43.2359C46.1186 43.8474 46.0034 44.4528 45.7794 45.0177C45.5554 45.5825 45.2271 46.0957 44.8133 46.5278C44.4 46.9604 43.9091 47.3036 43.3689 47.5378C42.8286 47.7719 42.2494 47.8925 41.6645 47.8925C41.0797 47.8925 40.5005 47.7719 39.9602 47.5378C39.4199 47.3036 38.9291 46.9604 38.5157 46.5278L38.3822 46.3882C37.8578 45.8519 37.1917 45.4921 36.4698 45.3553C35.7479 45.2184 35.0034 45.3108 34.3322 45.6205C33.674 45.9154 33.1127 46.4051 32.7173 47.0293C32.3219 47.6534 32.1097 48.3848 32.1069 49.1334V49.5289C32.1069 50.763 31.638 51.9464 30.8033 52.819C29.9687 53.6916 28.8367 54.1818 27.6563 54.1818C26.4759 54.1818 25.3439 53.6916 24.5093 52.819C23.6746 51.9464 23.2057 50.763 23.2057 49.5289V49.3196C23.1885 48.5495 22.9501 47.8027 22.5214 47.1762C22.0928 46.5497 21.4939 46.0725 20.8024 45.8066C20.1312 45.4969 19.3867 45.4046 18.6648 45.5414C17.9429 45.6782 17.2768 46.038 16.7523 46.5744L16.6188 46.7139C16.2055 47.1466 15.7146 47.4897 15.1743 47.7239C14.634 47.958 14.0549 48.0786 13.47 48.0786C12.8851 48.0786 12.306 47.958 11.7657 47.7239C11.2254 47.4897 10.7346 47.1466 10.3212 46.7139C9.90743 46.2818 9.57916 45.7686 9.35518 45.2038C9.13121 44.6389 9.01593 44.0335 9.01593 43.422C9.01593 42.8106 9.13121 42.2051 9.35518 41.6402C9.57916 41.0754 9.90743 40.5622 10.3212 40.1301L10.4547 39.9905C10.9678 39.4422 11.3119 38.7458 11.4428 37.9911C11.5737 37.2364 11.4853 36.4581 11.1891 35.7564C10.907 35.0683 10.4386 34.4814 9.8416 34.0681C9.24457 33.6547 8.54497 33.4329 7.8289 33.4299H7.45059C6.27022 33.4299 5.1382 32.9397 4.30355 32.0671C3.4689 31.1945 3 30.0111 3 28.777C3 27.543 3.4689 26.3595 4.30355 25.4869C5.1382 24.6144 6.27022 24.1241 7.45059 24.1241H7.65087C8.38743 24.1061 9.10178 23.8569 9.70104 23.4088C10.3003 22.9607 10.7568 22.3345 11.0111 21.6116C11.3073 20.9099 11.3957 20.1315 11.2648 19.3768C11.1339 18.6221 10.7897 17.9257 10.2767 17.3774L10.1432 17.2379C9.7294 16.8057 9.40113 16.2926 9.17716 15.7277C8.95319 15.1629 8.8379 14.5574 8.8379 13.9459C8.8379 13.3345 8.95319 12.729 9.17716 12.1642C9.40113 11.5993 9.7294 11.0861 10.1432 10.654C10.5565 10.2214 11.0474 9.87821 11.5877 9.64405C12.128 9.4099 12.7071 9.28938 13.292 9.28938C13.8769 9.28938 14.456 9.4099 14.9963 9.64405C15.5366 9.87821 16.0275 10.2214 16.4408 10.654L16.5743 10.7936C17.0988 11.3299 17.7649 11.6897 18.4868 11.8266C19.2086 11.9634 19.9532 11.871 20.6244 11.5613H20.8024C21.4606 11.2664 22.0219 10.7767 22.4173 10.1526C22.8126 9.52842 23.0248 8.79701 23.0277 8.04839V7.65289C23.0277 6.41887 23.4966 5.23539 24.3312 4.3628C25.1659 3.49021 26.2979 3 27.4783 3C28.6586 3 29.7907 3.49021 30.6253 4.3628C31.46 5.23539 31.9289 6.41887 31.9289 7.65289V7.86227C31.9317 8.61089 32.1439 9.3423 32.5393 9.96647C32.9347 10.5906 33.496 11.0803 34.1542 11.3752C34.8253 11.6849 35.5699 11.7773 36.2918 11.6404C37.0136 11.5036 37.6797 11.1438 38.2042 10.6075L38.3377 10.4679C38.7511 10.0353 39.2419 9.69209 39.7822 9.45794C40.3225 9.22379 40.9016 9.10326 41.4865 9.10326C42.0714 9.10326 42.6505 9.22379 43.1908 9.45794C43.7311 9.69209 44.222 10.0353 44.6353 10.4679C45.0491 10.9 45.3774 11.4132 45.6014 11.978C45.8253 12.5429 45.9406 13.1484 45.9406 13.7598C45.9406 14.3713 45.8253 14.9767 45.6014 15.5416C45.3774 16.1065 45.0491 16.6196 44.6353 17.0517L44.5018 17.1913C43.9888 17.7396 43.6446 18.436 43.5138 19.1907C43.3829 19.9454 43.4712 20.7238 43.7674 21.4255V21.6116C44.0495 22.2997 44.5179 22.8865 45.1149 23.2999C45.712 23.7132 46.4116 23.935 47.1276 23.938H47.5059C48.6863 23.938 49.8183 24.4282 50.653 25.3008C51.4876 26.1734 51.9565 27.3569 51.9565 28.5909C51.9565 29.8249 51.4876 31.0084 50.653 31.881C49.8183 32.7536 48.6863 33.2438 47.5059 33.2438H47.3057C46.5896 33.2468 45.89 33.4686 45.293 33.882C44.6959 34.2953 44.2276 34.8822 43.9455 35.5703Z" stroke="black" stroke-width="4.45059" stroke-linecap="round" stroke-linejoin="round"/>
</svg>
