<svg width="16" height="17" viewBox="0 0 16 17" fill="none" xmlns="http://www.w3.org/2000/svg">
<path d="M9.5 5.95833V3.125C9.5 2.56142 9.27612 2.02091 8.8776 1.6224C8.47909 1.22388 7.93858 1 7.375 1L4.54167 7.375V15.1667H12.5317C12.8733 15.1705 13.2049 15.0508 13.4652 14.8295C13.7255 14.6082 13.8971 14.3003 13.9483 13.9625L14.9258 7.5875C14.9567 7.38446 14.943 7.17715 14.8857 6.97993C14.8284 6.78271 14.729 6.60029 14.5942 6.44532C14.4595 6.29035 14.2926 6.16654 14.1053 6.08245C13.9179 5.99836 13.7145 5.95601 13.5092 5.95833H9.5ZM4.54167 15.1667H2.41667C2.04094 15.1667 1.68061 15.0174 1.41493 14.7517C1.14926 14.4861 1 14.1257 1 13.75V8.79167C1 8.41594 1.14926 8.05561 1.41493 7.78993C1.68061 7.52426 2.04094 7.375 2.41667 7.375H4.54167" fill="#8CC283"/>
<path d="M4.54167 7.375L7.375 1C7.93858 1 8.47909 1.22388 8.8776 1.6224C9.27612 2.02091 9.5 2.56142 9.5 3.125V5.95833H13.5092C13.7145 5.95601 13.9179 5.99836 14.1053 6.08245C14.2926 6.16654 14.4595 6.29035 14.5942 6.44532C14.729 6.60029 14.8284 6.78271 14.8857 6.97993C14.943 7.17715 14.9567 7.38446 14.9258 7.5875L13.9483 13.9625C13.8971 14.3003 13.7255 14.6082 13.4652 14.8295C13.2049 15.0508 12.8733 15.1705 12.5317 15.1667H4.54167M4.54167 7.375V15.1667M4.54167 7.375H2.41667C2.04094 7.375 1.68061 7.52426 1.41493 7.78993C1.14926 8.05561 1 8.41594 1 8.79167V13.75C1 14.1257 1.14926 14.4861 1.41493 14.7517C1.68061 15.0174 2.04094 15.1667 2.41667 15.1667H4.54167" stroke="#050505" stroke-width="2" stroke-linecap="round" stroke-linejoin="round"/>
</svg>
