<svg width="33" height="32" viewBox="0 0 33 32" fill="none" xmlns="http://www.w3.org/2000/svg">
<path d="M16.5 25.3337C21.8157 25.3337 26.125 21.155 26.125 16.0003C26.125 10.8457 21.8157 6.66699 16.5 6.66699C11.1843 6.66699 6.875 10.8457 6.875 16.0003C6.875 21.155 11.1843 25.3337 16.5 25.3337Z" stroke="black" stroke-width="2" stroke-linecap="round" stroke-linejoin="round"/>
<path d="M16.5 12V16L18.5625 18" stroke="black" stroke-width="2" stroke-linecap="round" stroke-linejoin="round"/>
<path d="M16.5 22.7913C20.5271 22.7913 23.7917 19.5268 23.7917 15.4997C23.7917 11.4726 20.5271 8.20801 16.5 8.20801C12.473 8.20801 9.20837 11.4726 9.20837 15.4997C9.20837 19.5268 12.473 22.7913 16.5 22.7913Z" stroke="black" stroke-width="2" stroke-linecap="round" stroke-linejoin="round"/>
<path d="M16.5 12.375V15.5L18.0625 17.0625" stroke="black" stroke-width="2" stroke-linecap="round" stroke-linejoin="round"/>
<path d="M21.1979 21.0733L20.8333 25.0628C20.7864 25.5823 20.5463 26.0652 20.1606 26.4162C19.7749 26.7672 19.2715 26.9608 18.75 26.9587H14.2395C13.718 26.9608 13.2147 26.7672 12.8289 26.4162C12.4432 26.0652 12.2031 25.5823 12.1562 25.0628L11.7916 21.0733M11.802 9.92743L12.1666 5.93784C12.2134 5.42021 12.452 4.93876 12.8355 4.588C13.219 4.23724 13.7198 4.0425 14.2395 4.04201H18.7708C19.2923 4.03989 19.7957 4.23347 20.1814 4.58448C20.5671 4.9355 20.8072 5.41842 20.8541 5.93784L21.2187 9.92743" stroke="black" stroke-width="2" stroke-linecap="round" stroke-linejoin="round"/>
</svg>
