<svg width="36" height="39" viewBox="0 0 36 39" fill="none" xmlns="http://www.w3.org/2000/svg">
<path d="M7.62561 14.5573H6.1936V32.4573H7.62561V14.5573Z" fill="url(#paint0_linear_33_2127)"/>
<path d="M13.3888 12.2866V6.54245H11.9567V12.2866C11.9559 13.539 11.0397 14.5573 9.915 14.5573H11.3471C12.4717 14.5573 13.3879 13.5389 13.3888 12.2866Z" fill="url(#paint1_linear_33_2127)"/>
<path d="M11.3565 30.5877H12.7885C13.914 30.5877 14.8293 29.5693 14.8293 28.3166C14.8293 27.0639 13.914 26.045 12.7885 26.045H11.3565C12.482 26.045 13.3973 27.0644 13.3973 28.3166C13.3973 29.5689 12.482 30.5877 11.3565 30.5877Z" fill="url(#paint2_linear_33_2127)"/>
<path d="M11.3565 19.6336C12.482 19.6336 13.3973 20.6523 13.3973 21.9045C13.3973 23.1568 12.482 24.1754 11.3565 24.1754H12.7885C13.914 24.1754 14.8293 23.157 14.8293 21.9045C14.8293 20.652 13.914 19.6336 12.7885 19.6336H11.3565Z" fill="url(#paint3_linear_33_2127)"/>
<path d="M18.56 30.5877H19.992C21.1179 30.5877 22.0332 29.5693 22.0332 28.3166C22.0332 27.0639 21.1179 26.045 19.992 26.045H18.56C19.6859 26.045 20.6012 27.0644 20.6012 28.3166C20.6012 29.5689 19.6859 30.5877 18.56 30.5877Z" fill="url(#paint4_linear_33_2127)"/>
<path d="M19.992 19.6336H18.56C19.6859 19.6336 20.6012 20.6523 20.6012 21.9045C20.6012 23.1568 19.6859 24.1754 18.56 24.1754H19.992C21.1179 24.1754 22.0332 23.157 22.0332 21.9045C22.0332 20.652 21.1179 19.6336 19.992 19.6336Z" fill="url(#paint5_linear_33_2127)"/>
<path d="M23.4738 13.0878C23.4738 11.8351 22.5585 10.8167 21.4328 10.8167H21.3124V10.6828C21.3124 9.43039 20.3971 8.41232 19.2715 8.41232H17.8395C18.965 8.41232 19.8803 9.43049 19.8803 10.6828V10.8167H20.0007C21.1264 10.8167 22.0417 11.8351 22.0417 13.0879C22.0417 14.3406 21.1264 15.3585 20.0007 15.3585H19.8803V15.4923C19.8803 16.7447 18.965 17.7629 17.8395 17.7629H19.2715C20.3971 17.7629 21.3124 16.7447 21.3124 15.4923V15.3585H21.4328C22.5585 15.3584 23.4738 14.34 23.4738 13.0878Z" fill="url(#paint6_linear_33_2127)"/>
<path d="M25.7638 30.5877H27.1959C28.3214 30.5877 29.2369 29.5693 29.2369 28.3166C29.2369 27.0639 28.3214 26.045 27.1959 26.045H25.7638C26.8893 26.045 27.8048 27.0644 27.8048 28.3166C27.8048 29.5689 26.8893 30.5877 25.7638 30.5877Z" fill="url(#paint7_linear_33_2127)"/>
<path d="M27.1959 19.6336H25.7638C26.8893 19.6336 27.8048 20.6523 27.8048 21.9045C27.8048 23.1568 26.8893 24.1754 25.7638 24.1754H27.1959C28.3214 24.1754 29.2369 23.157 29.2369 21.9045C29.2369 20.652 28.3214 19.6336 27.1959 19.6336Z" fill="url(#paint8_linear_33_2127)"/>
<path d="M27.8048 4.27133V10.0151H29.2369V4.27133C29.2369 3.01999 28.3214 2.00071 27.1959 2H25.7638C26.8893 2.00071 27.8048 3.01999 27.8048 4.27133Z" fill="url(#paint9_linear_33_2127)"/>
<path d="M32.9583 10.0151H31.5262C32.6524 10.016 33.5678 11.0352 33.5678 12.2866V34.7279C33.567 35.9814 32.6509 37 31.5262 37H32.9583C34.083 37 34.9991 35.9814 34.9999 34.7279V12.2866C34.9999 11.0353 34.0846 10.016 32.9583 10.0151Z" fill="url(#paint10_linear_33_2127)"/>
<path d="M18.5601 26.045C19.686 26.045 20.6013 27.0643 20.6013 28.3166C20.6013 29.5688 19.686 30.5877 18.5601 30.5877H17.1188C15.9931 30.5877 15.0778 29.5693 15.0778 28.3166C15.0778 27.0639 15.9931 26.045 17.1188 26.045H18.5601Z" fill="#1869FF"/>
<path d="M18.5601 19.6336C19.686 19.6336 20.6013 20.6522 20.6013 21.9045C20.6013 23.1567 19.686 24.1754 18.5601 24.1754H17.1188C15.9931 24.1754 15.0778 23.157 15.0778 21.9045C15.0778 20.652 15.9931 19.6336 17.1188 19.6336H18.5601Z" fill="#1869FF"/>
<path d="M25.7638 26.045C26.8893 26.045 27.8048 27.0643 27.8048 28.3166C27.8048 29.5688 26.8893 30.5877 25.7638 30.5877H24.3223C23.1968 30.5877 22.2815 29.5693 22.2815 28.3166C22.2815 27.0639 23.1968 26.045 24.3223 26.045H25.7638Z" fill="#1869FF"/>
<path d="M24.3223 19.6336H25.7638C26.8893 19.6336 27.8048 20.6522 27.8048 21.9045C27.8048 23.1567 26.8893 24.1754 25.7638 24.1754H24.3223C23.1968 24.1754 22.2815 23.157 22.2815 21.9045C22.2815 20.652 23.1968 19.6336 24.3223 19.6336Z" fill="#1869FF"/>
<path d="M31.5263 10.0151C32.6524 10.016 33.5679 11.0352 33.5679 12.2867V34.728C33.5671 35.9813 32.651 37 31.5263 37H4.1529C3.02677 36.9991 2.11133 35.9799 2.11133 34.728V12.2867C2.11212 11.0335 3.02826 10.0151 4.1529 10.0151H7.87446V4.27136C7.87446 3.01898 8.78976 2 9.91523 2H25.7639C26.8895 2.00071 27.805 3.02009 27.805 4.27136V10.0151H31.5263ZM29.4855 32.4573V14.5573H25.7639C24.6385 14.5573 23.7224 13.5389 23.7224 12.2867V6.54246H11.9569V12.2867C11.956 13.5391 11.0399 14.5573 9.91523 14.5573H6.1937V32.4573H29.4855Z" fill="#1869FF"/>
<path d="M11.3566 26.045C12.4821 26.045 13.3974 27.0643 13.3974 28.3166C13.3974 29.5688 12.4821 30.5877 11.3566 30.5877H9.91523C8.78976 30.5877 7.87448 29.5693 7.87448 28.3166C7.87448 27.0639 8.78976 26.045 9.91523 26.045H11.3566Z" fill="#1869FF"/>
<path d="M11.3566 19.6336C12.4821 19.6336 13.3974 20.6522 13.3974 21.9045C13.3974 23.1567 12.4821 24.1754 11.3566 24.1754H9.91523C8.78976 24.1754 7.87448 23.157 7.87448 21.9045C7.87448 20.652 8.78976 19.6336 9.91523 19.6336H11.3566Z" fill="#1869FF"/>
<path d="M20.0007 10.8167C21.1264 10.8167 22.0417 11.8351 22.0417 13.0878C22.0417 14.3405 21.1264 15.3585 20.0007 15.3585H19.8803V15.4922C19.8803 16.7446 18.965 17.7629 17.8395 17.7629C16.714 17.7629 15.7987 16.7447 15.7987 15.4922V15.3585H15.6783C14.5526 15.3585 13.6373 14.3401 13.6373 13.0878C13.6373 11.8355 14.5526 10.8167 15.6783 10.8167H15.7987V10.6828C15.7987 9.43039 16.714 8.41236 17.8395 8.41236C18.965 8.41236 19.8803 9.43053 19.8803 10.6828V10.8167L20.0007 10.8167Z" fill="#1869FF"/>
<g style="mix-blend-mode:multiply" opacity="0.4" filter="url(#filter0_f_33_2127)">
<path d="M11.5692 27.1587C12.143 27.1587 12.6097 27.6777 12.6097 28.3162C12.6097 28.9546 12.143 29.4743 11.5692 29.4743H10.1284C9.55495 29.4743 9.08789 28.9547 9.08789 28.3162C9.08789 27.6777 9.55491 27.1587 10.1284 27.1587H11.5692Z" fill="#0440AD"/>
</g>
<g style="mix-blend-mode:multiply" opacity="0.4" filter="url(#filter1_f_33_2127)">
<path d="M11.5692 20.7466C12.143 20.7466 12.6097 21.2662 12.6097 21.9047C12.6097 22.5432 12.143 23.062 11.5692 23.062H10.1284C9.55495 23.062 9.08789 22.543 9.08789 21.9047C9.08789 21.2664 9.55491 20.7466 10.1284 20.7466H11.5692Z" fill="#0440AD"/>
</g>
<g style="mix-blend-mode:multiply" opacity="0.4" filter="url(#filter2_f_33_2127)">
<path d="M20.2139 11.9299C20.7877 11.9299 21.2544 12.4497 21.2544 13.088C21.2544 13.7264 20.7877 14.2455 20.2139 14.2455H19.4937C19.2726 14.2455 19.0934 14.4449 19.0934 14.691V15.4923C19.0934 16.1307 18.6265 16.6504 18.0529 16.6504C17.4792 16.6504 17.0122 16.1308 17.0122 15.4923V14.691C17.0122 14.4449 16.833 14.2455 16.612 14.2455H15.8916C15.3181 14.2455 14.8511 13.7265 14.8511 13.088C14.8511 12.4496 15.3181 11.9299 15.8916 11.9299H16.612C16.833 11.9299 17.0122 11.7309 17.0122 11.4848V10.6836C17.0122 10.0451 17.479 9.52588 18.0529 9.52588C18.6267 9.52588 19.0934 10.0451 19.0934 10.6836V11.4848C19.0934 11.7309 19.2726 11.9299 19.4937 11.9299H20.2139Z" fill="#0440AD"/>
</g>
<g style="mix-blend-mode:multiply" opacity="0.4" filter="url(#filter3_f_33_2127)">
<path d="M25.9766 27.1587C26.5504 27.1587 27.0171 27.6777 27.0171 28.3162C27.0171 28.9546 26.5504 29.4743 25.9766 29.4743H24.5358C23.9622 29.4743 23.4954 28.9547 23.4954 28.3162C23.4954 27.6777 23.9622 27.1587 24.5358 27.1587H25.9766Z" fill="#0440AD"/>
</g>
<g style="mix-blend-mode:multiply" opacity="0.4" filter="url(#filter4_f_33_2127)">
<path d="M25.9766 20.7466C26.5504 20.7466 27.0171 21.2662 27.0171 21.9047C27.0171 22.5432 26.5504 23.062 25.9766 23.062H24.5358C23.9622 23.062 23.4954 22.543 23.4954 21.9047C23.4954 21.2664 23.9622 20.7466 24.5358 20.7466H25.9766Z" fill="#0440AD"/>
</g>
<g style="mix-blend-mode:multiply" opacity="0.4" filter="url(#filter5_f_33_2127)">
<path d="M32.4757 11.468C32.6743 11.6925 32.7829 11.9845 32.7801 12.2864V34.7296C32.7799 35.3675 32.3134 35.8861 31.7396 35.8861H4.36513C4.22596 35.8853 4.0885 35.8548 3.96175 35.7963C3.835 35.7379 3.72181 35.653 3.62957 35.547C3.43092 35.3226 3.32224 35.0305 3.325 34.7286V12.2854C3.32537 11.6473 3.79202 11.1285 4.36568 11.1285H8.6879C8.90872 11.1285 9.08791 10.9295 9.08791 10.6834V4.27024C9.08828 3.63237 9.55493 3.11377 10.1284 3.11377H25.9774C26.1165 3.11456 26.2539 3.14516 26.3806 3.20359C26.5073 3.26201 26.6205 3.34694 26.7127 3.45282C26.9112 3.67736 27.0198 3.96936 27.0171 4.27125V10.6835C27.0171 10.9295 27.1963 11.1285 27.4171 11.1285H31.7402C31.8794 11.1293 32.0169 11.16 32.1436 11.2185C32.2703 11.277 32.3835 11.362 32.4757 11.468ZM30.6989 33.1259V13.8896C30.6989 13.6435 30.5199 13.4441 30.2989 13.4441H25.9761C25.4026 13.4439 24.9361 12.9245 24.9361 12.2864V5.87441C24.9361 5.62831 24.7571 5.4293 24.5361 5.4293H11.5692C11.3484 5.4293 11.1692 5.62831 11.1692 5.87441V12.287C11.1688 12.9251 10.7022 13.4441 10.1285 13.4441H5.80628C5.58546 13.4441 5.40627 13.6435 5.40627 13.8896V33.1259C5.40627 33.3719 5.58546 33.5709 5.80628 33.5709H30.299C30.52 33.5709 30.699 33.3719 30.699 33.1259" fill="#0440AD"/>
</g>
<g style="mix-blend-mode:multiply" opacity="0.4" filter="url(#filter6_f_33_2127)">
<path d="M18.773 27.1587C19.3468 27.1587 19.8135 27.6777 19.8135 28.3162C19.8135 28.9546 19.3468 29.4743 18.773 29.4743H17.3322C16.7586 29.4743 16.2917 28.9547 16.2917 28.3162C16.2917 27.6777 16.7588 27.1587 17.3322 27.1587H18.773Z" fill="#0440AD"/>
</g>
<g style="mix-blend-mode:multiply" opacity="0.4" filter="url(#filter7_f_33_2127)">
<path d="M18.773 20.7466C19.3468 20.7466 19.8135 21.2662 19.8135 21.9047C19.8135 22.5432 19.3468 23.062 18.773 23.062H17.3322C16.7586 23.062 16.2917 22.543 16.2917 21.9047C16.2917 21.2664 16.7588 20.7466 17.3322 20.7466H18.773Z" fill="#0440AD"/>
</g>
<path d="M4.42478 33.1259V13.8896C4.42478 13.6435 4.60399 13.4441 4.82476 13.4441H4.48128C4.26048 13.4441 4.0813 13.6435 4.0813 13.8896V33.1259C4.0813 33.3719 4.26048 33.5709 4.48128 33.5709H4.82476C4.60399 33.5709 4.42478 33.3719 4.42478 33.1259Z" fill="url(#paint11_linear_33_2127)"/>
<path d="M10.1877 12.287V5.87437C10.1877 5.62827 10.3669 5.4293 10.5877 5.4293H10.2442C10.0234 5.4293 9.84421 5.62827 9.84421 5.87437V12.287C9.84384 12.925 9.37721 13.4441 8.80356 13.4441H9.14709C9.72071 13.4441 10.1874 12.925 10.1877 12.287Z" fill="url(#paint12_linear_33_2127)"/>
<path d="M10.2441 29.4745H10.5877C11.1616 29.4745 11.6282 28.9548 11.6282 28.3163C11.6282 27.6779 11.1616 27.1589 10.5877 27.1589H10.2441C10.818 27.1589 11.2847 27.6779 11.2847 28.3163C11.2847 28.9548 10.818 29.4745 10.2441 29.4745Z" fill="url(#paint13_linear_33_2127)"/>
<path d="M10.5877 20.7467H10.2441C10.818 20.7467 11.2847 21.2663 11.2847 21.9048C11.2847 22.5433 10.818 23.0621 10.2441 23.0621H10.5877C11.1616 23.0621 11.6282 22.543 11.6282 21.9048C11.6282 21.2665 11.1616 20.7467 10.5877 20.7467Z" fill="url(#paint14_linear_33_2127)"/>
<path d="M17.0713 16.6504C17.6449 16.6504 18.1118 16.1308 18.1118 15.4923V14.691C18.1118 14.445 18.2909 14.2456 18.5121 14.2456H18.1686C17.9474 14.2456 17.7682 14.445 17.7682 14.691V15.4923C17.7682 16.1307 17.3012 16.6504 16.7277 16.6504H17.0713Z" fill="url(#paint15_linear_33_2127)"/>
<path d="M17.0713 9.5258H16.7277C17.3013 9.5258 17.7682 10.045 17.7682 10.6835V11.4847C17.7682 11.7308 17.9474 11.9298 18.1686 11.9298H18.5121C18.2909 11.9298 18.1118 11.7308 18.1118 11.4847V10.6835C18.1118 10.045 17.6449 9.5258 17.0713 9.5258Z" fill="url(#paint16_linear_33_2127)"/>
<path d="M17.448 29.4745H17.7915C18.3653 29.4745 18.832 28.9548 18.832 28.3163C18.832 27.6779 18.3653 27.1589 17.7915 27.1589H17.448C18.0218 27.1589 18.4885 27.6779 18.4885 28.3163C18.4885 28.9548 18.0218 29.4745 17.448 29.4745Z" fill="url(#paint17_linear_33_2127)"/>
<path d="M18.4885 21.9048C18.4885 22.543 18.0218 23.0621 17.448 23.0621H17.7915C18.3653 23.0621 18.832 22.543 18.832 21.9048C18.832 21.2665 18.3653 20.7467 17.7915 20.7467H17.448C18.0218 20.7467 18.4885 21.2663 18.4885 21.9048Z" fill="url(#paint18_linear_33_2127)"/>
<path d="M18.8889 14.2455H19.2324C19.8062 14.2455 20.2728 13.7265 20.2728 13.088C20.2728 12.4495 19.8062 11.9299 19.2324 11.9299H18.8889C19.4627 11.9299 19.9293 12.4497 19.9293 13.088C19.9293 13.7263 19.4627 14.2455 18.8889 14.2455Z" fill="url(#paint19_linear_33_2127)"/>
<path d="M24.6517 29.4745H24.9953C25.5691 29.4745 26.0358 28.9548 26.0358 28.3163C26.0358 27.6779 25.5691 27.1589 24.9953 27.1589H24.6517C25.2256 27.1589 25.6922 27.6779 25.6922 28.3163C25.6922 28.9548 25.2256 29.4745 24.6517 29.4745Z" fill="url(#paint20_linear_33_2127)"/>
<path d="M24.9952 20.7467H24.6517C25.2255 20.7467 25.6922 21.2663 25.6922 21.9048C25.6922 22.5433 25.2255 23.0621 24.6517 23.0621H24.9952C25.5691 23.0621 26.0358 22.543 26.0358 21.9048C26.0358 21.2665 25.5692 20.7467 24.9952 20.7467Z" fill="url(#paint21_linear_33_2127)"/>
<path d="M25.3878 3.45282C25.5864 3.67735 25.695 3.96933 25.6922 4.27122V10.6835C25.6922 10.9296 25.8714 11.1285 26.0922 11.1285H26.4358C26.215 11.1285 26.0358 10.9296 26.0358 10.6835V4.27122C26.0385 3.96934 25.9299 3.67736 25.7314 3.45282C25.6392 3.34694 25.526 3.26201 25.3993 3.20359C25.2726 3.14517 25.1352 3.11456 24.9961 3.11377H24.6525C24.7916 3.11456 24.929 3.14516 25.0557 3.20359C25.1824 3.26201 25.2956 3.34694 25.3878 3.45282Z" fill="url(#paint22_linear_33_2127)"/>
<path d="M30.7589 11.1285H30.4154C30.5546 11.1294 30.692 11.16 30.8187 11.2185C30.9454 11.277 31.0585 11.362 31.1507 11.468C31.3493 11.6925 31.4579 11.9845 31.4551 12.2864V34.7296C31.4549 35.3675 30.9884 35.8861 30.4146 35.8861H30.7581C31.3319 35.8861 31.7984 35.3676 31.7986 34.7296V12.2864C31.8015 11.9845 31.6929 11.6925 31.4942 11.468C31.4021 11.362 31.2889 11.277 31.1622 11.2185C31.0355 11.16 30.8981 11.1294 30.7589 11.1285Z" fill="url(#paint23_linear_33_2127)"/>
<path d="M10.2441 27.1589C10.818 27.1589 11.2846 27.6779 11.2846 28.3164C11.2846 28.9548 10.818 29.4745 10.2441 29.4745H8.80332C8.22988 29.4745 7.76282 28.9549 7.76282 28.3164C7.76282 27.6779 8.22985 27.1589 8.80332 27.1589H10.2441Z" fill="#F0F8FF"/>
<path d="M10.2441 20.7467C10.818 20.7467 11.2846 21.2663 11.2846 21.9048C11.2846 22.5433 10.818 23.0621 10.2441 23.0621H8.80332C8.22988 23.0621 7.76282 22.5431 7.76282 21.9048C7.76282 21.2665 8.22985 20.7467 8.80332 20.7467H10.2441Z" fill="#F0F8FF"/>
<path d="M18.8887 11.9299C19.4626 11.9299 19.9292 12.4497 19.9292 13.088C19.9292 13.7264 19.4626 14.2455 18.8887 14.2455H18.1685C17.9473 14.2455 17.7681 14.4449 17.7681 14.691V15.4923C17.7681 16.1307 17.3011 16.6504 16.7276 16.6504C16.1542 16.6504 15.687 16.1308 15.687 15.4923V14.691C15.687 14.4449 15.5078 14.2455 15.2868 14.2455H14.5663C13.9929 14.2455 13.5259 13.7265 13.5259 13.088C13.5259 12.4496 13.9929 11.9299 14.5663 11.9299H15.2868C15.5078 11.9299 15.687 11.7309 15.687 11.4848V10.6836C15.687 10.0451 16.1538 9.52588 16.7276 9.52588C17.3015 9.52588 17.7681 10.0451 17.7681 10.6836V11.4848C17.7681 11.7309 17.9473 11.9299 18.1685 11.9299H18.8887Z" fill="#F0F8FF"/>
<path d="M24.6517 27.1589C25.2255 27.1589 25.6921 27.6779 25.6921 28.3164C25.6921 28.9548 25.2255 29.4745 24.6517 29.4745H23.2109C22.6373 29.4745 22.1704 28.9549 22.1704 28.3164C22.1704 27.6779 22.6374 27.1589 23.2109 27.1589H24.6517Z" fill="#F0F8FF"/>
<path d="M24.6517 20.7467C25.2255 20.7467 25.6921 21.2663 25.6921 21.9048C25.6921 22.5433 25.2255 23.0621 24.6517 23.0621H23.2109C22.6373 23.0621 22.1704 22.5431 22.1704 21.9048C22.1704 21.2665 22.6374 20.7467 23.2109 20.7467H24.6517Z" fill="#F0F8FF"/>
<path d="M31.1507 11.468C31.3494 11.6925 31.458 11.9845 31.4551 12.2864V34.7296C31.4549 35.3675 30.9884 35.8861 30.4146 35.8861H3.04018C2.90101 35.8853 2.76355 35.8548 2.6368 35.7963C2.51005 35.7379 2.39686 35.653 2.30462 35.547C2.10597 35.3226 1.99729 35.0305 2.00005 34.7286V12.2854C2.00042 11.6473 2.46706 11.1285 3.04073 11.1285H7.36311C7.58393 11.1285 7.76312 10.9295 7.76312 10.6834V4.27024C7.76349 3.63237 8.23014 3.11377 8.80361 3.11377H24.6526C24.7917 3.11456 24.9291 3.14516 25.0558 3.20359C25.1825 3.26201 25.2957 3.34694 25.3879 3.45282C25.5864 3.67736 25.695 3.96936 25.6923 4.27125V10.6835C25.6923 10.9295 25.8715 11.1285 26.0923 11.1285H30.4154C30.5546 11.1294 30.692 11.16 30.8187 11.2185C30.9454 11.277 31.0585 11.362 31.1507 11.468ZM29.3739 33.1259V13.8896C29.3739 13.6435 29.1949 13.4441 28.9739 13.4441H24.6512C24.0777 13.4439 23.6112 12.9245 23.6112 12.2864V5.87441C23.6112 5.62831 23.4323 5.4293 23.2111 5.4293H10.2442C10.0234 5.4293 9.84422 5.62831 9.84422 5.87441V12.287C9.84386 12.9251 9.37721 13.4441 8.80354 13.4441H4.48117C4.26035 13.4441 4.08115 13.6435 4.08115 13.8896V33.1259C4.08115 33.3719 4.26035 33.5709 4.48117 33.5709H28.9739C29.1948 33.5709 29.3739 33.3719 29.3739 33.1259Z" fill="#F0F8FF"/>
<path d="M17.4479 27.1589C18.0217 27.1589 18.4884 27.6779 18.4884 28.3164C18.4884 28.9548 18.0217 29.4745 17.4479 29.4745H16.0071C15.4335 29.4745 14.9666 28.9549 14.9666 28.3164C14.9666 27.6779 15.4335 27.1589 16.0071 27.1589H17.4479Z" fill="#F0F8FF"/>
<path d="M17.4479 20.7467C18.0217 20.7467 18.4884 21.2663 18.4884 21.9048C18.4884 22.5433 18.0217 23.0621 17.4479 23.0621H16.0071C15.4335 23.0621 14.9666 22.5431 14.9666 21.9048C14.9666 21.2665 15.4335 20.7467 16.0071 20.7467H17.4479Z" fill="#F0F8FF"/>
<defs>
<filter id="filter0_f_33_2127" x="6.08789" y="24.1587" width="9.52173" height="8.31543" filterUnits="userSpaceOnUse" color-interpolation-filters="sRGB">
<feFlood flood-opacity="0" result="BackgroundImageFix"/>
<feBlend mode="normal" in="SourceGraphic" in2="BackgroundImageFix" result="shape"/>
<feGaussianBlur stdDeviation="1.5" result="effect1_foregroundBlur_33_2127"/>
</filter>
<filter id="filter1_f_33_2127" x="6.08789" y="17.7466" width="9.52173" height="8.31543" filterUnits="userSpaceOnUse" color-interpolation-filters="sRGB">
<feFlood flood-opacity="0" result="BackgroundImageFix"/>
<feBlend mode="normal" in="SourceGraphic" in2="BackgroundImageFix" result="shape"/>
<feGaussianBlur stdDeviation="1.5" result="effect1_foregroundBlur_33_2127"/>
</filter>
<filter id="filter2_f_33_2127" x="11.8511" y="6.52588" width="12.4033" height="13.1245" filterUnits="userSpaceOnUse" color-interpolation-filters="sRGB">
<feFlood flood-opacity="0" result="BackgroundImageFix"/>
<feBlend mode="normal" in="SourceGraphic" in2="BackgroundImageFix" result="shape"/>
<feGaussianBlur stdDeviation="1.5" result="effect1_foregroundBlur_33_2127"/>
</filter>
<filter id="filter3_f_33_2127" x="20.4954" y="24.1587" width="9.52173" height="8.31543" filterUnits="userSpaceOnUse" color-interpolation-filters="sRGB">
<feFlood flood-opacity="0" result="BackgroundImageFix"/>
<feBlend mode="normal" in="SourceGraphic" in2="BackgroundImageFix" result="shape"/>
<feGaussianBlur stdDeviation="1.5" result="effect1_foregroundBlur_33_2127"/>
</filter>
<filter id="filter4_f_33_2127" x="20.4954" y="17.7466" width="9.52173" height="8.31543" filterUnits="userSpaceOnUse" color-interpolation-filters="sRGB">
<feFlood flood-opacity="0" result="BackgroundImageFix"/>
<feBlend mode="normal" in="SourceGraphic" in2="BackgroundImageFix" result="shape"/>
<feGaussianBlur stdDeviation="1.5" result="effect1_foregroundBlur_33_2127"/>
</filter>
<filter id="filter5_f_33_2127" x="0.324951" y="0.11377" width="35.4551" height="38.7725" filterUnits="userSpaceOnUse" color-interpolation-filters="sRGB">
<feFlood flood-opacity="0" result="BackgroundImageFix"/>
<feBlend mode="normal" in="SourceGraphic" in2="BackgroundImageFix" result="shape"/>
<feGaussianBlur stdDeviation="1.5" result="effect1_foregroundBlur_33_2127"/>
</filter>
<filter id="filter6_f_33_2127" x="13.2917" y="24.1587" width="9.52173" height="8.31543" filterUnits="userSpaceOnUse" color-interpolation-filters="sRGB">
<feFlood flood-opacity="0" result="BackgroundImageFix"/>
<feBlend mode="normal" in="SourceGraphic" in2="BackgroundImageFix" result="shape"/>
<feGaussianBlur stdDeviation="1.5" result="effect1_foregroundBlur_33_2127"/>
</filter>
<filter id="filter7_f_33_2127" x="13.2917" y="17.7466" width="9.52173" height="8.31543" filterUnits="userSpaceOnUse" color-interpolation-filters="sRGB">
<feFlood flood-opacity="0" result="BackgroundImageFix"/>
<feBlend mode="normal" in="SourceGraphic" in2="BackgroundImageFix" result="shape"/>
<feGaussianBlur stdDeviation="1.5" result="effect1_foregroundBlur_33_2127"/>
</filter>
<linearGradient id="paint0_linear_33_2127" x1="20.5967" y1="2" x2="20.5967" y2="37" gradientUnits="userSpaceOnUse">
<stop stop-color="#0440AD"/>
<stop offset="1" stop-color="#1869FF"/>
</linearGradient>
<linearGradient id="paint1_linear_33_2127" x1="20.5967" y1="2" x2="20.5967" y2="37" gradientUnits="userSpaceOnUse">
<stop stop-color="#0440AD"/>
<stop offset="1" stop-color="#1869FF"/>
</linearGradient>
<linearGradient id="paint2_linear_33_2127" x1="20.5967" y1="2" x2="20.5967" y2="37" gradientUnits="userSpaceOnUse">
<stop stop-color="#0440AD"/>
<stop offset="1" stop-color="#1869FF"/>
</linearGradient>
<linearGradient id="paint3_linear_33_2127" x1="20.5967" y1="2" x2="20.5967" y2="37" gradientUnits="userSpaceOnUse">
<stop stop-color="#0440AD"/>
<stop offset="1" stop-color="#1869FF"/>
</linearGradient>
<linearGradient id="paint4_linear_33_2127" x1="20.5967" y1="2" x2="20.5967" y2="37" gradientUnits="userSpaceOnUse">
<stop stop-color="#0440AD"/>
<stop offset="1" stop-color="#1869FF"/>
</linearGradient>
<linearGradient id="paint5_linear_33_2127" x1="20.5967" y1="2" x2="20.5967" y2="37" gradientUnits="userSpaceOnUse">
<stop stop-color="#0440AD"/>
<stop offset="1" stop-color="#1869FF"/>
</linearGradient>
<linearGradient id="paint6_linear_33_2127" x1="20.5967" y1="2" x2="20.5967" y2="37" gradientUnits="userSpaceOnUse">
<stop stop-color="#0440AD"/>
<stop offset="1" stop-color="#1869FF"/>
</linearGradient>
<linearGradient id="paint7_linear_33_2127" x1="20.5967" y1="2" x2="20.5967" y2="37" gradientUnits="userSpaceOnUse">
<stop stop-color="#0440AD"/>
<stop offset="1" stop-color="#1869FF"/>
</linearGradient>
<linearGradient id="paint8_linear_33_2127" x1="20.5967" y1="2" x2="20.5967" y2="37" gradientUnits="userSpaceOnUse">
<stop stop-color="#0440AD"/>
<stop offset="1" stop-color="#1869FF"/>
</linearGradient>
<linearGradient id="paint9_linear_33_2127" x1="20.5967" y1="2" x2="20.5967" y2="37" gradientUnits="userSpaceOnUse">
<stop stop-color="#0440AD"/>
<stop offset="1" stop-color="#1869FF"/>
</linearGradient>
<linearGradient id="paint10_linear_33_2127" x1="20.5967" y1="2" x2="20.5967" y2="37" gradientUnits="userSpaceOnUse">
<stop stop-color="#0440AD"/>
<stop offset="1" stop-color="#1869FF"/>
</linearGradient>
<linearGradient id="paint11_linear_33_2127" x1="17.94" y1="3.11377" x2="17.94" y2="35.8861" gradientUnits="userSpaceOnUse">
<stop stop-color="#81ADFF"/>
<stop offset="1" stop-color="#F0F8FF"/>
</linearGradient>
<linearGradient id="paint12_linear_33_2127" x1="17.94" y1="3.11377" x2="17.94" y2="35.8861" gradientUnits="userSpaceOnUse">
<stop stop-color="#81ADFF"/>
<stop offset="1" stop-color="#F0F8FF"/>
</linearGradient>
<linearGradient id="paint13_linear_33_2127" x1="17.94" y1="3.11377" x2="17.94" y2="35.8861" gradientUnits="userSpaceOnUse">
<stop stop-color="#81ADFF"/>
<stop offset="1" stop-color="#F0F8FF"/>
</linearGradient>
<linearGradient id="paint14_linear_33_2127" x1="17.94" y1="3.11377" x2="17.94" y2="35.8861" gradientUnits="userSpaceOnUse">
<stop stop-color="#81ADFF"/>
<stop offset="1" stop-color="#F0F8FF"/>
</linearGradient>
<linearGradient id="paint15_linear_33_2127" x1="17.94" y1="3.11377" x2="17.94" y2="35.8861" gradientUnits="userSpaceOnUse">
<stop stop-color="#81ADFF"/>
<stop offset="1" stop-color="#F0F8FF"/>
</linearGradient>
<linearGradient id="paint16_linear_33_2127" x1="17.94" y1="3.11377" x2="17.94" y2="35.8861" gradientUnits="userSpaceOnUse">
<stop stop-color="#81ADFF"/>
<stop offset="1" stop-color="#F0F8FF"/>
</linearGradient>
<linearGradient id="paint17_linear_33_2127" x1="17.94" y1="3.11377" x2="17.94" y2="35.8861" gradientUnits="userSpaceOnUse">
<stop stop-color="#81ADFF"/>
<stop offset="1" stop-color="#F0F8FF"/>
</linearGradient>
<linearGradient id="paint18_linear_33_2127" x1="17.94" y1="3.11377" x2="17.94" y2="35.8861" gradientUnits="userSpaceOnUse">
<stop stop-color="#81ADFF"/>
<stop offset="1" stop-color="#F0F8FF"/>
</linearGradient>
<linearGradient id="paint19_linear_33_2127" x1="17.94" y1="3.11377" x2="17.94" y2="35.8861" gradientUnits="userSpaceOnUse">
<stop stop-color="#81ADFF"/>
<stop offset="1" stop-color="#F0F8FF"/>
</linearGradient>
<linearGradient id="paint20_linear_33_2127" x1="17.94" y1="3.11377" x2="17.94" y2="35.8861" gradientUnits="userSpaceOnUse">
<stop stop-color="#81ADFF"/>
<stop offset="1" stop-color="#F0F8FF"/>
</linearGradient>
<linearGradient id="paint21_linear_33_2127" x1="17.94" y1="3.11377" x2="17.94" y2="35.8861" gradientUnits="userSpaceOnUse">
<stop stop-color="#81ADFF"/>
<stop offset="1" stop-color="#F0F8FF"/>
</linearGradient>
<linearGradient id="paint22_linear_33_2127" x1="17.94" y1="3.11377" x2="17.94" y2="35.8861" gradientUnits="userSpaceOnUse">
<stop stop-color="#81ADFF"/>
<stop offset="1" stop-color="#F0F8FF"/>
</linearGradient>
<linearGradient id="paint23_linear_33_2127" x1="17.94" y1="3.11377" x2="17.94" y2="35.8861" gradientUnits="userSpaceOnUse">
<stop stop-color="#81ADFF"/>
<stop offset="1" stop-color="#F0F8FF"/>
</linearGradient>
</defs>
</svg>
