<svg width="21" height="21" viewBox="0 0 21 21" fill="none" xmlns="http://www.w3.org/2000/svg">
<path d="M3.91675 8.20798H6.69453V17.6524H3.91675V8.20798ZM5.2973 7.09687H5.28175C4.45286 7.09687 3.91675 6.47909 3.91675 5.70742C3.91675 4.91909 4.46953 4.31909 5.31341 4.31909C6.15841 4.31909 6.67897 4.91909 6.69453 5.70742C6.69453 6.47854 6.15841 7.09687 5.2973 7.09687ZM17.2501 17.6524H14.4723V12.5974C14.4723 11.3763 13.7917 10.543 12.699 10.543C11.8651 10.543 11.414 11.1052 11.1951 11.6485C11.1151 11.843 11.139 12.3808 11.139 12.6524V17.6524H8.36119V8.20798H11.139V9.66131C11.5395 9.04131 12.1667 8.20798 13.7712 8.20798C15.759 8.20798 17.2495 9.45798 17.2495 12.2491L17.2501 17.6524Z" fill="white"/>
</svg>
