<svg width="21" height="21" viewBox="0 0 21 21" fill="none" xmlns="http://www.w3.org/2000/svg">
<path d="M3.91675 8.20774H6.69453V17.6522H3.91675V8.20774ZM5.2973 7.09663H5.28175C4.45286 7.09663 3.91675 6.47885 3.91675 5.70718C3.91675 4.91885 4.46953 4.31885 5.31341 4.31885C6.15841 4.31885 6.67897 4.91885 6.69453 5.70718C6.69453 6.47829 6.15841 7.09663 5.2973 7.09663ZM17.2501 17.6522H14.4723V12.5972C14.4723 11.3761 13.7917 10.5427 12.699 10.5427C11.8651 10.5427 11.414 11.105 11.1951 11.6483C11.1151 11.8427 11.139 12.3805 11.139 12.6522V17.6522H8.36119V8.20774H11.139V9.66107C11.5395 9.04107 12.1667 8.20774 13.7712 8.20774C15.759 8.20774 17.2495 9.45774 17.2495 12.2488L17.2501 17.6522Z" fill="white"/>
</svg>
