<svg width="40" height="40" viewBox="0 0 40 40" fill="none" xmlns="http://www.w3.org/2000/svg">
<path d="M3.75184 15.0284H36.2478C36.2478 15.0284 37.1558 14.2844 36.2478 13.3364L20.0038 3.77637L3.75184 13.3324C3.75184 13.3324 2.62784 14.3444 3.75184 15.0284ZM37.3078 34.9124L35.3478 33.2084C35.2398 33.1164 34.9958 33.0404 34.7958 33.0404L5.60384 33.0844C5.40784 33.0844 5.14784 33.1564 5.02784 33.2444L2.71984 34.9204C2.59984 35.0084 2.50384 35.1684 2.50384 35.2764V36.0244C2.50384 36.1324 2.66384 36.2244 2.86384 36.2244H37.1478C37.3438 36.2244 37.5078 36.1364 37.5078 36.0244V35.2804C37.4998 35.1684 37.4118 35.0044 37.3078 34.9124ZM32.1598 16.3524H35.1518V31.3484H32.1598V16.3524ZM27.2638 16.3524H30.2558V31.3484H27.2638V16.3524ZM10.2078 16.3524H13.1998V31.3484H10.2078V16.3524ZM5.31184 16.3524H8.30384V31.3484H5.31184V16.3524ZM20.0638 31.3284C20.2918 31.3284 20.5198 31.2964 20.7358 31.2324V29.4164C21.6638 29.2084 22.3718 28.8084 22.8598 28.2164C23.3438 27.6284 23.5878 26.9044 23.5878 26.0484C23.5878 25.5364 23.5238 25.1124 23.3998 24.7724C23.2758 24.4324 23.0998 24.1444 22.8758 23.9124C22.6518 23.6764 22.3758 23.4764 22.0518 23.3084C21.7278 23.1404 21.3678 22.9724 20.9718 22.8084L20.0318 22.4164C19.8758 22.3524 19.7198 22.2844 19.5638 22.2124C19.4078 22.1404 19.2678 22.0524 19.1398 21.9524C19.0158 21.8524 18.9158 21.7324 18.8438 21.5844C18.7718 21.4364 18.7358 21.2604 18.7358 21.0524C18.7358 20.8124 18.7838 20.6164 18.8758 20.4644C18.9678 20.3124 19.0878 20.1964 19.2358 20.1124C19.3838 20.0284 19.5478 19.9724 19.7278 19.9484C19.9118 19.9244 20.0918 19.9084 20.2678 19.9084C20.5598 19.9084 20.8198 19.9204 21.0518 19.9484C21.2798 19.9764 21.4878 20.0084 21.6718 20.0484C21.8558 20.0884 22.0278 20.1444 22.1878 20.2044C22.3478 20.2684 22.5078 20.3284 22.6638 20.3924C22.9358 19.8084 23.1038 19.2124 23.1638 18.6084C22.7358 18.4604 22.3278 18.3444 21.9438 18.2564C21.5558 18.1684 21.1558 18.1084 20.7358 18.0764V16.4644C20.4958 16.4004 20.2678 16.3724 20.0478 16.3724C19.8198 16.3724 19.5918 16.4044 19.3758 16.4644V18.1244C18.4358 18.2404 17.6998 18.5684 17.1678 19.1124C16.6358 19.6564 16.3678 20.3964 16.3678 21.3364C16.3678 21.7764 16.4238 22.1444 16.5318 22.4484C16.6398 22.7524 16.7998 23.0164 16.9998 23.2404C17.2038 23.4644 17.4478 23.6564 17.7278 23.8204C18.0078 23.9844 18.3238 24.1364 18.6678 24.2844L19.4998 24.6444C19.6758 24.7284 19.8598 24.8084 20.0478 24.8804C20.2358 24.9524 20.4038 25.0404 20.5558 25.1484C20.7078 25.2524 20.8318 25.3844 20.9318 25.5484C21.0318 25.7084 21.0798 25.9164 21.0798 26.1684C21.0798 26.6684 20.8998 27.0324 20.5398 27.2564C20.1798 27.4804 19.6718 27.5924 19.0118 27.5924C18.5718 27.5924 18.1598 27.5604 17.7758 27.4924C17.3878 27.4244 16.9758 27.3004 16.5398 27.1244C16.4238 27.4604 16.3238 27.7804 16.2438 28.0884C16.1598 28.3964 16.1038 28.7004 16.0718 29.0044C16.3318 29.1084 16.5838 29.1964 16.8238 29.2724C17.0638 29.3444 17.3078 29.4044 17.5518 29.4524C17.7958 29.5004 18.0558 29.5324 18.3278 29.5524C18.5998 29.5724 18.9078 29.5844 19.2518 29.5844H19.3758V31.2444C19.6038 31.2964 19.8358 31.3284 20.0638 31.3284Z" fill="#F9F9F9"/>
</svg>
