<svg width="21" height="21" viewBox="0 0 21 21" fill="none" xmlns="http://www.w3.org/2000/svg">
<path d="M5.67424 6.98633C3.28269 6.98633 1.37013 9.03853 1.6025 11.4783C1.80541 13.6056 3.71293 15.1682 5.85002 15.1682H8.12879C8.58043 15.1682 8.94698 14.8016 8.94698 14.35C8.94698 13.8983 8.58043 13.5318 8.12879 13.5318H5.81327C4.48454 13.5318 3.29321 12.5362 3.22448 11.2083C3.15003 9.79283 4.27515 8.6227 5.67424 8.6227H8.12879C8.58043 8.6227 8.94698 8.25615 8.94698 7.80451C8.94698 7.35287 8.58043 6.98633 8.12879 6.98633H5.67424ZM13.0379 6.98633C12.5863 6.98633 12.2197 7.35287 12.2197 7.80451C12.2197 8.25615 12.5863 8.6227 13.0379 8.6227H15.3534C16.6822 8.6227 17.8735 9.6183 17.9422 10.9462C18.0167 12.3617 16.8915 13.5318 15.4924 13.5318H13.0379C12.5863 13.5318 12.2197 13.8983 12.2197 14.35C12.2197 14.8016 12.5863 15.1682 13.0379 15.1682H15.4924C17.884 15.1682 19.7966 13.116 19.5642 10.6761C19.3613 8.54887 17.4538 6.98633 15.3167 6.98633H13.0379ZM7.31061 10.2591C6.85897 10.2591 6.49242 10.6256 6.49242 11.0772C6.49242 11.5289 6.85897 11.8954 7.31061 11.8954H13.8561C14.3077 11.8954 14.6743 11.5289 14.6743 11.0772C14.6743 10.6256 14.3077 10.2591 13.8561 10.2591H7.31061Z" fill="#0F528B"/>
</svg>
