<svg width="21" height="21" viewBox="0 0 21 21" fill="none" xmlns="http://www.w3.org/2000/svg">
<path d="M5.67439 6.98535C3.28284 6.98535 1.37028 9.03755 1.60265 11.4774C1.80556 13.6047 3.71308 15.1672 5.85017 15.1672H8.12894C8.58058 15.1672 8.94713 14.8006 8.94713 14.349C8.94713 13.8974 8.58058 13.5308 8.12894 13.5308H5.81342C4.48469 13.5308 3.29336 12.5352 3.22463 11.2073C3.15018 9.79185 4.2753 8.62172 5.67439 8.62172H8.12894C8.58058 8.62172 8.94713 8.25517 8.94713 7.80354C8.94713 7.3519 8.58058 6.98535 8.12894 6.98535H5.67439ZM13.038 6.98535C12.5864 6.98535 12.2199 7.3519 12.2199 7.80354C12.2199 8.25517 12.5864 8.62172 13.038 8.62172H15.3536C16.6823 8.62172 17.8736 9.61732 17.9424 10.9452C18.0168 12.3607 16.8917 13.5308 15.4926 13.5308H13.038C12.5864 13.5308 12.2199 13.8974 12.2199 14.349C12.2199 14.8006 12.5864 15.1672 13.038 15.1672H15.4926C17.8842 15.1672 19.7967 13.115 19.5643 10.6752C19.3614 8.54789 17.4539 6.98535 15.3168 6.98535H13.038ZM7.31076 10.2581C6.85912 10.2581 6.49258 10.6246 6.49258 11.0763C6.49258 11.5279 6.85912 11.8945 7.31076 11.8945H13.8562C14.3079 11.8945 14.6744 11.5279 14.6744 11.0763C14.6744 10.6246 14.3079 10.2581 13.8562 10.2581H7.31076Z" fill="#0F528B"/>
</svg>
