<svg width="21" height="21" viewBox="0 0 21 21" fill="none" xmlns="http://www.w3.org/2000/svg">
<path d="M18.6117 4.34487C17.9325 4.66571 16.7767 5.26737 16.1959 5.38237C16.1734 5.38821 16.155 5.39571 16.1334 5.40154C15.4559 4.73321 14.5275 4.31904 13.5 4.31904C11.4292 4.31904 9.75003 5.99821 9.75003 8.06904C9.75003 8.17821 9.74086 8.37904 9.75003 8.48571C7.06836 8.48571 5.11003 7.08654 3.64419 5.28821C3.44836 5.04654 3.24003 5.17237 3.19669 5.34404C3.09919 5.73237 3.06586 6.38154 3.06586 6.84487C3.06586 8.01237 3.97836 9.15904 5.39919 9.86987C5.13753 9.93737 4.84919 9.98571 4.54919 9.98571C4.19586 9.98571 3.78919 9.89321 3.43336 9.70654C3.30169 9.63737 3.01753 9.65654 3.10169 9.99321C3.43919 11.3424 4.97919 12.2899 6.35503 12.5657C6.04253 12.7499 5.37586 12.7124 5.06919 12.7124C4.95586 12.7124 4.56169 12.6857 4.30669 12.654C4.07419 12.6257 3.71669 12.6857 4.01586 13.139C4.65836 14.1115 6.11169 14.7224 7.36253 14.7457C6.21086 15.649 4.32753 15.979 2.52336 15.979C2.15836 15.9707 2.17669 16.3865 2.47086 16.5407C3.80169 17.239 5.98169 17.6524 7.53919 17.6524C13.7309 17.6524 17.25 12.9332 17.25 8.48487C17.25 8.41321 17.2484 8.26321 17.2459 8.11237C17.2459 8.09737 17.25 8.08321 17.25 8.06821C17.25 8.04571 17.2434 8.02404 17.2434 8.00154C17.2409 7.88821 17.2384 7.78237 17.2359 7.72737C17.7267 7.37321 18.4784 6.75821 18.8584 6.28737C18.9875 6.12737 18.8834 5.93321 18.7075 5.99404C18.255 6.15154 17.4725 6.45654 16.9825 6.51487C17.9634 5.86571 18.4484 5.30071 18.865 4.67321C19.0075 4.45904 18.8292 4.24154 18.6117 4.34487Z" fill="white"/>
</svg>
