<svg width="21" height="21" viewBox="0 0 21 21" fill="none" xmlns="http://www.w3.org/2000/svg">
<path d="M18.6117 4.34438C17.9325 4.66522 16.7767 5.26688 16.1959 5.38188C16.1734 5.38772 16.155 5.39522 16.1334 5.40105C15.4559 4.73272 14.5275 4.31855 13.5 4.31855C11.4292 4.31855 9.75003 5.99772 9.75003 8.06855C9.75003 8.17772 9.74086 8.37855 9.75003 8.48522C7.06836 8.48522 5.11003 7.08605 3.64419 5.28772C3.44836 5.04605 3.24003 5.17188 3.19669 5.34355C3.09919 5.73188 3.06586 6.38105 3.06586 6.84438C3.06586 8.01188 3.97836 9.15855 5.39919 9.86938C5.13753 9.93688 4.84919 9.98522 4.54919 9.98522C4.19586 9.98522 3.78919 9.89272 3.43336 9.70605C3.30169 9.63688 3.01753 9.65605 3.10169 9.99272C3.43919 11.3419 4.97919 12.2894 6.35503 12.5652C6.04253 12.7494 5.37586 12.7119 5.06919 12.7119C4.95586 12.7119 4.56169 12.6852 4.30669 12.6536C4.07419 12.6252 3.71669 12.6852 4.01586 13.1386C4.65836 14.1111 6.11169 14.7219 7.36253 14.7452C6.21086 15.6486 4.32753 15.9786 2.52336 15.9786C2.15836 15.9702 2.17669 16.3861 2.47086 16.5402C3.80169 17.2386 5.98169 17.6519 7.53919 17.6519C13.7309 17.6519 17.25 12.9327 17.25 8.48438C17.25 8.41272 17.2484 8.26272 17.2459 8.11188C17.2459 8.09688 17.25 8.08272 17.25 8.06772C17.25 8.04522 17.2434 8.02355 17.2434 8.00105C17.2409 7.88772 17.2384 7.78188 17.2359 7.72688C17.7267 7.37272 18.4784 6.75772 18.8584 6.28688C18.9875 6.12688 18.8834 5.93272 18.7075 5.99355C18.255 6.15105 17.4725 6.45605 16.9825 6.51438C17.9634 5.86522 18.4484 5.30022 18.865 4.67272C19.0075 4.45855 18.8292 4.24105 18.6117 4.34438Z" fill="white"/>
</svg>
