<svg width="21" height="21" viewBox="0 0 21 21" fill="none" xmlns="http://www.w3.org/2000/svg">
<path d="M3.91675 8.2092H6.69453V17.6536H3.91675V8.2092ZM5.2973 7.09809H5.28175C4.45286 7.09809 3.91675 6.48031 3.91675 5.70865C3.91675 4.92031 4.46953 4.32031 5.31341 4.32031C6.15841 4.32031 6.67897 4.92031 6.69453 5.70865C6.69453 6.47976 6.15841 7.09809 5.2973 7.09809ZM17.2501 17.6536H14.4723V12.5986C14.4723 11.3775 13.7917 10.5442 12.699 10.5442C11.8651 10.5442 11.414 11.1064 11.1951 11.6498C11.1151 11.8442 11.139 12.382 11.139 12.6536V17.6536H8.36119V8.2092H11.139V9.66253C11.5395 9.04253 12.1667 8.2092 13.7712 8.2092C15.759 8.2092 17.2495 9.4592 17.2495 12.2503L17.2501 17.6536Z" fill="white"/>
</svg>
