<svg width="21" height="21" viewBox="0 0 21 21" fill="none" xmlns="http://www.w3.org/2000/svg">
<path d="M18.6119 4.34487C17.9328 4.66571 16.7769 5.26737 16.1961 5.38237C16.1736 5.38821 16.1553 5.39571 16.1336 5.40154C15.4561 4.73321 14.5278 4.31904 13.5003 4.31904C11.4294 4.31904 9.75027 5.99821 9.75027 8.06904C9.75027 8.17821 9.7411 8.37904 9.75027 8.48571C7.0686 8.48571 5.11027 7.08654 3.64444 5.28821C3.4486 5.04654 3.24027 5.17237 3.19694 5.34404C3.09944 5.73237 3.0661 6.38154 3.0661 6.84487C3.0661 8.01237 3.9786 9.15904 5.39944 9.86987C5.13777 9.93737 4.84944 9.98571 4.54944 9.98571C4.1961 9.98571 3.78944 9.89321 3.4336 9.70654C3.30194 9.63737 3.01777 9.65654 3.10194 9.99321C3.43944 11.3424 4.97944 12.2899 6.35527 12.5657C6.04277 12.7499 5.3761 12.7124 5.06944 12.7124C4.9561 12.7124 4.56194 12.6857 4.30694 12.654C4.07444 12.6257 3.71694 12.6857 4.0161 13.139C4.6586 14.1115 6.11194 14.7224 7.36277 14.7457C6.2111 15.649 4.32777 15.979 2.5236 15.979C2.1586 15.9707 2.17694 16.3865 2.4711 16.5407C3.80194 17.239 5.98194 17.6524 7.53944 17.6524C13.7311 17.6524 17.2503 12.9332 17.2503 8.48487C17.2503 8.41321 17.2486 8.26321 17.2461 8.11237C17.2461 8.09737 17.2503 8.08321 17.2503 8.06821C17.2503 8.04571 17.2436 8.02404 17.2436 8.00154C17.2411 7.88821 17.2386 7.78237 17.2361 7.72737C17.7269 7.37321 18.4786 6.75821 18.8586 6.28737C18.9878 6.12737 18.8836 5.93321 18.7078 5.99404C18.2553 6.15154 17.4728 6.45654 16.9828 6.51487C17.9636 5.86571 18.4486 5.30071 18.8653 4.67321C19.0078 4.45904 18.8294 4.24154 18.6119 4.34487Z" fill="white"/>
</svg>
