<svg width="21" height="21" viewBox="0 0 21 21" fill="none" xmlns="http://www.w3.org/2000/svg">
<path d="M3.91669 8.20798H6.69446V17.6524H3.91669V8.20798ZM5.29724 7.09687H5.28169C4.4528 7.09687 3.91669 6.47909 3.91669 5.70742C3.91669 4.91909 4.46946 4.31909 5.31335 4.31909C6.15835 4.31909 6.67891 4.91909 6.69446 5.70742C6.69446 6.47854 6.15835 7.09687 5.29724 7.09687ZM17.25 17.6524H14.4722V12.5974C14.4722 11.3763 13.7917 10.543 12.6989 10.543C11.865 10.543 11.4139 11.1052 11.195 11.6485C11.115 11.843 11.1389 12.3808 11.1389 12.6524V17.6524H8.36113V8.20798H11.1389V9.66131C11.5395 9.04131 12.1667 8.20798 13.7711 8.20798C15.7589 8.20798 17.2495 9.45798 17.2495 12.2491L17.25 17.6524Z" fill="white"/>
</svg>
