<svg width="21" height="21" viewBox="0 0 21 21" fill="none" xmlns="http://www.w3.org/2000/svg">
<path d="M3.91669 8.20725H6.69446V17.6517H3.91669V8.20725ZM5.29724 7.09614H5.28169C4.4528 7.09614 3.91669 6.47836 3.91669 5.70669C3.91669 4.91836 4.46946 4.31836 5.31335 4.31836C6.15835 4.31836 6.67891 4.91836 6.69446 5.70669C6.69446 6.4778 6.15835 7.09614 5.29724 7.09614ZM17.25 17.6517H14.4722V12.5967C14.4722 11.3756 13.7917 10.5422 12.6989 10.5422C11.865 10.5422 11.4139 11.1045 11.195 11.6478C11.115 11.8422 11.1389 12.38 11.1389 12.6517V17.6517H8.36113V8.20725H11.1389V9.66058C11.5395 9.04058 12.1667 8.20725 13.7711 8.20725C15.7589 8.20725 17.2495 9.45725 17.2495 12.2484L17.25 17.6517Z" fill="white"/>
</svg>
