<svg width="32" height="42" viewBox="0 0 32 42" fill="none" xmlns="http://www.w3.org/2000/svg">
<path fill-rule="evenodd" clip-rule="evenodd" d="M16 22.2035C19.2728 22.2035 21.9259 19.5177 21.9259 16.2046C21.9259 12.8914 19.2728 10.2056 16 10.2056C12.7272 10.2056 10.0741 12.8914 10.0741 16.2046C10.0741 19.5177 12.7272 22.2035 16 22.2035ZM16 18.6041C17.3091 18.6041 18.3704 17.5298 18.3704 16.2046C18.3704 14.8793 17.3091 13.805 16 13.805C14.6909 13.805 13.6296 14.8793 13.6296 16.2046C13.6296 17.5298 14.6909 18.6041 16 18.6041Z" fill="black"/>
<path fill-rule="evenodd" clip-rule="evenodd" d="M0 16.5146C0 7.43107 7.12709 0 16 0C24.8729 0 32 7.43107 32 16.5146C32 21.4726 29.8804 25.93 26.5183 28.9596L23.5226 32.0591C23.8607 32.1467 24.1859 32.2403 24.4968 32.3397C25.6134 32.6966 26.6461 33.1593 27.438 33.7578C28.1978 34.3321 29.037 35.2734 29.037 36.601C29.037 37.9286 28.1978 38.8698 27.438 39.4441C26.6461 40.0426 25.6134 40.5053 24.4968 40.8622C22.243 41.5827 19.2393 42 16 42C12.7607 42 9.75695 41.5827 7.50316 40.8622C6.38665 40.5053 5.35388 40.0426 4.56198 39.4441C3.80221 38.8698 2.96296 37.9286 2.96296 36.601C2.96296 35.2734 3.80221 34.3321 4.56198 33.7578C5.35388 33.1593 6.38665 32.6966 7.50316 32.3397C7.78922 32.2482 8.08736 32.1617 8.39653 32.0802L5.22037 28.7189C2.01014 25.6965 0 21.3428 0 16.5146ZM16 3.59936C9.16348 3.59936 3.55556 9.34452 3.55556 16.5146C3.55556 20.3313 5.14799 23.7519 7.67423 26.1137L7.71469 26.1515L14.6769 33.5195C15.3511 34.2331 16.4414 34.2389 17.1226 33.5341L24.0665 26.3497L24.1152 26.3061C26.7632 23.9399 28.4444 20.4362 28.4444 16.5146C28.4444 9.34452 22.8365 3.59936 16 3.59936ZM11.2969 35.1496C10.267 35.3121 9.34778 35.5246 8.57385 35.772C7.70035 36.0512 7.1011 36.3471 6.74507 36.601C7.1011 36.8549 7.70035 37.1507 8.57385 37.4299C10.3951 38.0122 13.021 38.4006 16 38.4006C18.979 38.4006 21.6049 38.0122 23.4262 37.4299C24.2997 37.1507 24.8989 36.8549 25.2549 36.601C24.8989 36.3471 24.2997 36.0512 23.4262 35.772C22.6159 35.5129 21.6464 35.2923 20.5574 35.1271L19.664 36.0514C17.5766 38.2111 14.1704 38.1907 12.1075 36.0075L11.2969 35.1496Z" fill="black"/>
</svg>
