<svg width="34" height="34" viewBox="0 0 34 34" fill="none" xmlns="http://www.w3.org/2000/svg">
<path fill-rule="evenodd" clip-rule="evenodd" d="M25.8113 28.6397C23.1019 30.7458 19.6974 32 16 32C7.16344 32 0 24.8366 0 16C0 7.16344 7.16344 0 16 0C24.8366 0 32 7.16344 32 16C32 19.6974 30.7458 23.1019 28.6397 25.8113L33.4142 30.5858C34.1953 31.3668 34.1953 32.6332 33.4142 33.4142C32.6332 34.1953 31.3668 34.1953 30.5858 33.4142L25.8113 28.6397ZM28 16C28 22.6274 22.6274 28 16 28C9.37258 28 4 22.6274 4 16C4 9.37258 9.37258 4 16 4C22.6274 4 28 9.37258 28 16Z" fill="black"/>
</svg>
