<svg width="7" height="12" viewBox="0 0 7 12" fill="none" xmlns="http://www.w3.org/2000/svg">
<path fill-rule="evenodd" clip-rule="evenodd" d="M0.225212 0.23986C0.265851 0.199117 0.31413 0.166792 0.367282 0.144737C0.420434 0.122681 0.477415 0.111328 0.534962 0.111328C0.592508 0.111328 0.649489 0.122681 0.702641 0.144737C0.755793 0.166792 0.804072 0.199117 0.844712 0.23986L6.09471 5.48986C6.13546 5.5305 6.16778 5.57878 6.18984 5.63193C6.21189 5.68508 6.22324 5.74206 6.22324 5.79961C6.22324 5.85716 6.21189 5.91414 6.18984 5.96729C6.16778 6.02044 6.13546 6.06872 6.09471 6.10936L0.844712 11.3594C0.762561 11.4415 0.65114 11.4877 0.534962 11.4877C0.418783 11.4877 0.307362 11.4415 0.225212 11.3594C0.143061 11.2772 0.0969087 11.1658 0.0969087 11.0496C0.0969087 10.9334 0.143061 10.822 0.225212 10.7399L5.16634 5.79961L0.225212 0.85936C0.184469 0.81872 0.152144 0.770442 0.130088 0.71729C0.108032 0.664138 0.0966797 0.607157 0.0966797 0.54961C0.0966797 0.492064 0.108032 0.435083 0.130088 0.381931C0.152144 0.328779 0.184469 0.2805 0.225212 0.23986Z" fill="white"/>
</svg>
